<mxfile host="app.diagrams.net" modified="2021-02-13T12:46:10.688Z" agent="5.0 (Windows)" etag="Ae8JCo-sCr0NwoxCAkiL" version="14.2.3" type="github">
  <diagram id="EAwgcVaTCCvuZAi8_X2_" name="Page-1">
    <mxGraphModel dx="2031" dy="1130" grid="1" gridSize="10" guides="1" tooltips="1" connect="1" arrows="1" fold="1" page="1" pageScale="1" pageWidth="850" pageHeight="1100" math="0" shadow="0">
      <root>
        <mxCell id="0" />
        <mxCell id="1" parent="0" />
        <mxCell id="3IQrkMapiq6-mRBA_fu9-59" value="" style="whiteSpace=wrap;html=1;aspect=fixed;fillColor=none;strokeColor=#CCCCCC;" parent="1" vertex="1">
          <mxGeometry x="440" y="680" width="200" height="200" as="geometry" />
        </mxCell>
        <mxCell id="3IQrkMapiq6-mRBA_fu9-8" value="" style="whiteSpace=wrap;html=1;aspect=fixed;fillColor=none;strokeColor=#CCCCCC;" parent="1" vertex="1">
          <mxGeometry x="160" y="280" width="200" height="200" as="geometry" />
        </mxCell>
        <mxCell id="3IQrkMapiq6-mRBA_fu9-1" value="" style="endArrow=none;html=1;strokeColor=#FF0000;" parent="1" edge="1">
          <mxGeometry width="50" height="50" relative="1" as="geometry">
            <mxPoint x="360" y="320" as="sourcePoint" />
            <mxPoint x="360" y="280" as="targetPoint" />
          </mxGeometry>
        </mxCell>
        <mxCell id="3IQrkMapiq6-mRBA_fu9-2" value="" style="endArrow=none;html=1;strokeColor=#FF0000;" parent="1" edge="1">
          <mxGeometry width="50" height="50" relative="1" as="geometry">
            <mxPoint x="760" y="520" as="sourcePoint" />
            <mxPoint x="720" y="520" as="targetPoint" />
          </mxGeometry>
        </mxCell>
        <mxCell id="3IQrkMapiq6-mRBA_fu9-3" value="" style="endArrow=none;html=1;strokeColor=#FF0000;" parent="1" edge="1">
          <mxGeometry width="50" height="50" relative="1" as="geometry">
            <mxPoint x="280" y="280" as="sourcePoint" />
            <mxPoint x="240" y="280" as="targetPoint" />
          </mxGeometry>
        </mxCell>
        <mxCell id="3IQrkMapiq6-mRBA_fu9-4" value="" style="endArrow=none;html=1;strokeColor=#FF0000;" parent="1" edge="1">
          <mxGeometry width="50" height="50" relative="1" as="geometry">
            <mxPoint x="320" y="440" as="sourcePoint" />
            <mxPoint x="280" y="440" as="targetPoint" />
          </mxGeometry>
        </mxCell>
        <mxCell id="3IQrkMapiq6-mRBA_fu9-5" value="" style="endArrow=none;html=1;strokeColor=#FF0000;" parent="1" edge="1">
          <mxGeometry width="50" height="50" relative="1" as="geometry">
            <mxPoint x="320" y="480" as="sourcePoint" />
            <mxPoint x="280" y="480" as="targetPoint" />
          </mxGeometry>
        </mxCell>
        <mxCell id="3IQrkMapiq6-mRBA_fu9-6" value="" style="endArrow=none;html=1;strokeColor=#FF0000;" parent="1" edge="1">
          <mxGeometry width="50" height="50" relative="1" as="geometry">
            <mxPoint x="660" y="290" as="sourcePoint" />
            <mxPoint x="660" y="250" as="targetPoint" />
          </mxGeometry>
        </mxCell>
        <mxCell id="3IQrkMapiq6-mRBA_fu9-10" value="" style="endArrow=none;html=1;strokeColor=#FF0000;" parent="1" edge="1">
          <mxGeometry width="50" height="50" relative="1" as="geometry">
            <mxPoint x="200" y="480" as="sourcePoint" />
            <mxPoint x="160" y="480" as="targetPoint" />
          </mxGeometry>
        </mxCell>
        <mxCell id="3IQrkMapiq6-mRBA_fu9-12" value="" style="endArrow=none;html=1;strokeColor=#FF0000;" parent="1" edge="1">
          <mxGeometry width="50" height="50" relative="1" as="geometry">
            <mxPoint x="360" y="440" as="sourcePoint" />
            <mxPoint x="360" y="400" as="targetPoint" />
          </mxGeometry>
        </mxCell>
        <mxCell id="3IQrkMapiq6-mRBA_fu9-13" value="" style="endArrow=none;html=1;strokeColor=#FF0000;" parent="1" edge="1">
          <mxGeometry width="50" height="50" relative="1" as="geometry">
            <mxPoint x="240" y="440" as="sourcePoint" />
            <mxPoint x="240" y="400" as="targetPoint" />
          </mxGeometry>
        </mxCell>
        <mxCell id="3IQrkMapiq6-mRBA_fu9-14" value="" style="endArrow=none;html=1;strokeColor=#FF0000;" parent="1" edge="1">
          <mxGeometry width="50" height="50" relative="1" as="geometry">
            <mxPoint x="200" y="400" as="sourcePoint" />
            <mxPoint x="160" y="400" as="targetPoint" />
          </mxGeometry>
        </mxCell>
        <mxCell id="3IQrkMapiq6-mRBA_fu9-15" value="" style="endArrow=none;html=1;strokeColor=#FF0000;" parent="1" edge="1">
          <mxGeometry width="50" height="50" relative="1" as="geometry">
            <mxPoint x="320" y="360" as="sourcePoint" />
            <mxPoint x="320" y="320" as="targetPoint" />
          </mxGeometry>
        </mxCell>
        <mxCell id="3IQrkMapiq6-mRBA_fu9-16" value="" style="endArrow=none;html=1;strokeColor=#FF0000;" parent="1" edge="1">
          <mxGeometry width="50" height="50" relative="1" as="geometry">
            <mxPoint x="160" y="320" as="sourcePoint" />
            <mxPoint x="160" y="280" as="targetPoint" />
          </mxGeometry>
        </mxCell>
        <mxCell id="3IQrkMapiq6-mRBA_fu9-17" value="" style="endArrow=none;html=1;strokeColor=#FF0000;" parent="1" edge="1">
          <mxGeometry width="50" height="50" relative="1" as="geometry">
            <mxPoint x="240" y="320" as="sourcePoint" />
            <mxPoint x="200" y="320" as="targetPoint" />
          </mxGeometry>
        </mxCell>
        <mxCell id="3IQrkMapiq6-mRBA_fu9-18" value="" style="endArrow=none;html=1;strokeColor=#FF0000;" parent="1" edge="1">
          <mxGeometry width="50" height="50" relative="1" as="geometry">
            <mxPoint x="280" y="360" as="sourcePoint" />
            <mxPoint x="240" y="360" as="targetPoint" />
          </mxGeometry>
        </mxCell>
        <mxCell id="3IQrkMapiq6-mRBA_fu9-19" value="" style="whiteSpace=wrap;html=1;aspect=fixed;fillColor=none;strokeColor=#CCCCCC;" parent="1" vertex="1">
          <mxGeometry x="400" y="280" width="200" height="200" as="geometry" />
        </mxCell>
        <mxCell id="3IQrkMapiq6-mRBA_fu9-20" value="" style="endArrow=none;html=1;strokeColor=#FF0000;" parent="1" edge="1">
          <mxGeometry width="50" height="50" relative="1" as="geometry">
            <mxPoint x="400" y="360" as="sourcePoint" />
            <mxPoint x="400" y="320" as="targetPoint" />
          </mxGeometry>
        </mxCell>
        <mxCell id="3IQrkMapiq6-mRBA_fu9-22" value="" style="endArrow=none;html=1;strokeColor=#FF0000;" parent="1" edge="1">
          <mxGeometry width="50" height="50" relative="1" as="geometry">
            <mxPoint x="650.0000000000001" y="420" as="sourcePoint" />
            <mxPoint x="650.0000000000001" y="380" as="targetPoint" />
          </mxGeometry>
        </mxCell>
        <mxCell id="3IQrkMapiq6-mRBA_fu9-23" value="" style="endArrow=none;html=1;strokeColor=#FF0000;" parent="1" edge="1">
          <mxGeometry width="50" height="50" relative="1" as="geometry">
            <mxPoint x="690.0000000000001" y="420" as="sourcePoint" />
            <mxPoint x="690.0000000000001" y="380" as="targetPoint" />
          </mxGeometry>
        </mxCell>
        <mxCell id="3IQrkMapiq6-mRBA_fu9-24" value="" style="endArrow=none;html=1;strokeColor=#FF0000;" parent="1" edge="1">
          <mxGeometry width="50" height="50" relative="1" as="geometry">
            <mxPoint x="480" y="280" as="sourcePoint" />
            <mxPoint x="440" y="280" as="targetPoint" />
          </mxGeometry>
        </mxCell>
        <mxCell id="3IQrkMapiq6-mRBA_fu9-28" value="" style="endArrow=none;html=1;strokeColor=#3333FF;" parent="1" edge="1">
          <mxGeometry width="50" height="50" relative="1" as="geometry">
            <mxPoint x="480" y="360" as="sourcePoint" />
            <mxPoint x="480" y="320" as="targetPoint" />
          </mxGeometry>
        </mxCell>
        <mxCell id="3IQrkMapiq6-mRBA_fu9-29" value="" style="endArrow=none;html=1;strokeColor=#3333FF;" parent="1" edge="1">
          <mxGeometry width="50" height="50" relative="1" as="geometry">
            <mxPoint x="440" y="360" as="sourcePoint" />
            <mxPoint x="400" y="360" as="targetPoint" />
          </mxGeometry>
        </mxCell>
        <mxCell id="3IQrkMapiq6-mRBA_fu9-30" value="" style="endArrow=none;html=1;strokeColor=#3333FF;" parent="1" edge="1">
          <mxGeometry width="50" height="50" relative="1" as="geometry">
            <mxPoint x="520" y="320" as="sourcePoint" />
            <mxPoint x="520" y="280" as="targetPoint" />
          </mxGeometry>
        </mxCell>
        <mxCell id="3IQrkMapiq6-mRBA_fu9-31" value="" style="endArrow=none;html=1;strokeColor=#3333FF;" parent="1" edge="1">
          <mxGeometry width="50" height="50" relative="1" as="geometry">
            <mxPoint x="520" y="360" as="sourcePoint" />
            <mxPoint x="520" y="320" as="targetPoint" />
          </mxGeometry>
        </mxCell>
        <mxCell id="3IQrkMapiq6-mRBA_fu9-33" value="" style="endArrow=none;html=1;strokeColor=#3333FF;" parent="1" edge="1">
          <mxGeometry width="50" height="50" relative="1" as="geometry">
            <mxPoint x="400" y="320" as="sourcePoint" />
            <mxPoint x="400" y="280" as="targetPoint" />
          </mxGeometry>
        </mxCell>
        <mxCell id="3IQrkMapiq6-mRBA_fu9-34" value="" style="endArrow=none;html=1;strokeColor=#3333FF;" parent="1" edge="1">
          <mxGeometry width="50" height="50" relative="1" as="geometry">
            <mxPoint x="440" y="320" as="sourcePoint" />
            <mxPoint x="440" y="280" as="targetPoint" />
          </mxGeometry>
        </mxCell>
        <mxCell id="3IQrkMapiq6-mRBA_fu9-35" value="" style="endArrow=none;html=1;strokeColor=#3333FF;" parent="1" edge="1">
          <mxGeometry width="50" height="50" relative="1" as="geometry">
            <mxPoint x="400" y="400" as="sourcePoint" />
            <mxPoint x="400" y="360" as="targetPoint" />
          </mxGeometry>
        </mxCell>
        <mxCell id="3IQrkMapiq6-mRBA_fu9-36" value="" style="endArrow=none;html=1;strokeColor=#3333FF;" parent="1" edge="1">
          <mxGeometry width="50" height="50" relative="1" as="geometry">
            <mxPoint x="480" y="320" as="sourcePoint" />
            <mxPoint x="480" y="280" as="targetPoint" />
          </mxGeometry>
        </mxCell>
        <mxCell id="3IQrkMapiq6-mRBA_fu9-37" value="" style="endArrow=none;html=1;strokeColor=#3333FF;" parent="1" edge="1">
          <mxGeometry width="50" height="50" relative="1" as="geometry">
            <mxPoint x="520" y="280" as="sourcePoint" />
            <mxPoint x="480" y="280" as="targetPoint" />
          </mxGeometry>
        </mxCell>
        <mxCell id="3IQrkMapiq6-mRBA_fu9-38" value="" style="endArrow=none;html=1;strokeColor=#3333FF;" parent="1" edge="1">
          <mxGeometry width="50" height="50" relative="1" as="geometry">
            <mxPoint x="440" y="280" as="sourcePoint" />
            <mxPoint x="400" y="280" as="targetPoint" />
          </mxGeometry>
        </mxCell>
        <mxCell id="3IQrkMapiq6-mRBA_fu9-40" value="" style="endArrow=none;html=1;strokeColor=#3333FF;" parent="1" edge="1">
          <mxGeometry width="50" height="50" relative="1" as="geometry">
            <mxPoint x="440" y="320" as="sourcePoint" />
            <mxPoint x="400" y="320" as="targetPoint" />
          </mxGeometry>
        </mxCell>
        <mxCell id="3IQrkMapiq6-mRBA_fu9-41" value="" style="endArrow=none;html=1;strokeColor=#3333FF;" parent="1" edge="1">
          <mxGeometry width="50" height="50" relative="1" as="geometry">
            <mxPoint x="560" y="320" as="sourcePoint" />
            <mxPoint x="520" y="320" as="targetPoint" />
          </mxGeometry>
        </mxCell>
        <mxCell id="3IQrkMapiq6-mRBA_fu9-42" value="" style="endArrow=none;html=1;strokeColor=#3333FF;" parent="1" edge="1">
          <mxGeometry width="50" height="50" relative="1" as="geometry">
            <mxPoint x="480" y="320" as="sourcePoint" />
            <mxPoint x="440" y="320" as="targetPoint" />
          </mxGeometry>
        </mxCell>
        <mxCell id="3IQrkMapiq6-mRBA_fu9-44" value="" style="endArrow=none;html=1;strokeColor=#FF0000;" parent="1" edge="1">
          <mxGeometry width="50" height="50" relative="1" as="geometry">
            <mxPoint x="520" y="320" as="sourcePoint" />
            <mxPoint x="480" y="320" as="targetPoint" />
          </mxGeometry>
        </mxCell>
        <mxCell id="3IQrkMapiq6-mRBA_fu9-48" value="" style="endArrow=none;html=1;strokeWidth=3;" parent="1" edge="1">
          <mxGeometry width="50" height="50" relative="1" as="geometry">
            <mxPoint x="80" y="760" as="sourcePoint" />
            <mxPoint x="80" y="720" as="targetPoint" />
          </mxGeometry>
        </mxCell>
        <mxCell id="3IQrkMapiq6-mRBA_fu9-50" value="" style="group" parent="1" vertex="1" connectable="0">
          <mxGeometry x="530" y="890" width="120" height="160" as="geometry" />
        </mxCell>
        <mxCell id="3IQrkMapiq6-mRBA_fu9-27" value="" style="endArrow=none;html=1;strokeColor=#FF0000;" parent="3IQrkMapiq6-mRBA_fu9-50" edge="1">
          <mxGeometry width="50" height="50" relative="1" as="geometry">
            <mxPoint x="40" y="80" as="sourcePoint" />
            <mxPoint x="40" y="40" as="targetPoint" />
          </mxGeometry>
        </mxCell>
        <mxCell id="3IQrkMapiq6-mRBA_fu9-32" value="" style="endArrow=none;html=1;strokeColor=#3333FF;" parent="3IQrkMapiq6-mRBA_fu9-50" edge="1">
          <mxGeometry width="50" height="50" relative="1" as="geometry">
            <mxPoint x="40" y="40" as="sourcePoint" />
            <mxPoint x="40" as="targetPoint" />
          </mxGeometry>
        </mxCell>
        <mxCell id="3IQrkMapiq6-mRBA_fu9-39" value="" style="endArrow=none;html=1;strokeColor=#3333FF;" parent="3IQrkMapiq6-mRBA_fu9-50" edge="1">
          <mxGeometry width="50" height="50" relative="1" as="geometry">
            <mxPoint x="80" y="40" as="sourcePoint" />
            <mxPoint x="40" y="40" as="targetPoint" />
          </mxGeometry>
        </mxCell>
        <mxCell id="3IQrkMapiq6-mRBA_fu9-45" value="" style="endArrow=none;html=1;strokeColor=#3333FF;" parent="3IQrkMapiq6-mRBA_fu9-50" edge="1">
          <mxGeometry width="50" height="50" relative="1" as="geometry">
            <mxPoint x="40" y="40" as="sourcePoint" />
            <mxPoint y="40" as="targetPoint" />
          </mxGeometry>
        </mxCell>
        <mxCell id="3IQrkMapiq6-mRBA_fu9-46" value="" style="endArrow=none;html=1;strokeColor=#3333FF;" parent="3IQrkMapiq6-mRBA_fu9-50" edge="1">
          <mxGeometry width="50" height="50" relative="1" as="geometry">
            <mxPoint x="40" y="80" as="sourcePoint" />
            <mxPoint y="80" as="targetPoint" />
          </mxGeometry>
        </mxCell>
        <mxCell id="3IQrkMapiq6-mRBA_fu9-47" value="" style="endArrow=none;html=1;strokeColor=#3333FF;" parent="3IQrkMapiq6-mRBA_fu9-50" edge="1">
          <mxGeometry width="50" height="50" relative="1" as="geometry">
            <mxPoint x="80" y="80" as="sourcePoint" />
            <mxPoint x="40" y="80" as="targetPoint" />
          </mxGeometry>
        </mxCell>
        <mxCell id="3IQrkMapiq6-mRBA_fu9-49" value="" style="endArrow=none;html=1;strokeColor=#3333FF;" parent="3IQrkMapiq6-mRBA_fu9-50" edge="1">
          <mxGeometry width="50" height="50" relative="1" as="geometry">
            <mxPoint x="40" y="120" as="sourcePoint" />
            <mxPoint x="40" y="80" as="targetPoint" />
          </mxGeometry>
        </mxCell>
        <mxCell id="3IQrkMapiq6-mRBA_fu9-69" value="" style="group" parent="3IQrkMapiq6-mRBA_fu9-50" vertex="1" connectable="0">
          <mxGeometry x="40" y="40" width="80" height="120" as="geometry" />
        </mxCell>
        <mxCell id="3IQrkMapiq6-mRBA_fu9-70" value="" style="endArrow=none;html=1;strokeColor=#FF0000;" parent="3IQrkMapiq6-mRBA_fu9-69" edge="1">
          <mxGeometry width="50" height="50" relative="1" as="geometry">
            <mxPoint x="40" y="80" as="sourcePoint" />
            <mxPoint x="40" y="40" as="targetPoint" />
          </mxGeometry>
        </mxCell>
        <mxCell id="3IQrkMapiq6-mRBA_fu9-71" value="" style="endArrow=none;html=1;strokeColor=#3333FF;" parent="3IQrkMapiq6-mRBA_fu9-69" edge="1">
          <mxGeometry width="50" height="50" relative="1" as="geometry">
            <mxPoint x="40" y="40" as="sourcePoint" />
            <mxPoint x="40" as="targetPoint" />
          </mxGeometry>
        </mxCell>
        <mxCell id="3IQrkMapiq6-mRBA_fu9-72" value="" style="endArrow=none;html=1;strokeColor=#3333FF;" parent="3IQrkMapiq6-mRBA_fu9-69" edge="1">
          <mxGeometry width="50" height="50" relative="1" as="geometry">
            <mxPoint x="80" y="40" as="sourcePoint" />
            <mxPoint x="40" y="40" as="targetPoint" />
          </mxGeometry>
        </mxCell>
        <mxCell id="3IQrkMapiq6-mRBA_fu9-73" value="" style="endArrow=none;html=1;strokeColor=#3333FF;" parent="3IQrkMapiq6-mRBA_fu9-69" edge="1">
          <mxGeometry width="50" height="50" relative="1" as="geometry">
            <mxPoint x="40" y="40" as="sourcePoint" />
            <mxPoint y="40" as="targetPoint" />
          </mxGeometry>
        </mxCell>
        <mxCell id="3IQrkMapiq6-mRBA_fu9-74" value="" style="endArrow=none;html=1;strokeColor=#3333FF;" parent="3IQrkMapiq6-mRBA_fu9-69" edge="1">
          <mxGeometry width="50" height="50" relative="1" as="geometry">
            <mxPoint x="40" y="80" as="sourcePoint" />
            <mxPoint y="80" as="targetPoint" />
          </mxGeometry>
        </mxCell>
        <mxCell id="3IQrkMapiq6-mRBA_fu9-75" value="" style="endArrow=none;html=1;strokeColor=#3333FF;" parent="3IQrkMapiq6-mRBA_fu9-69" edge="1">
          <mxGeometry width="50" height="50" relative="1" as="geometry">
            <mxPoint x="80" y="80" as="sourcePoint" />
            <mxPoint x="40" y="80" as="targetPoint" />
          </mxGeometry>
        </mxCell>
        <mxCell id="3IQrkMapiq6-mRBA_fu9-76" value="" style="endArrow=none;html=1;strokeColor=#3333FF;" parent="3IQrkMapiq6-mRBA_fu9-69" edge="1">
          <mxGeometry width="50" height="50" relative="1" as="geometry">
            <mxPoint x="40" y="120" as="sourcePoint" />
            <mxPoint x="40" y="80" as="targetPoint" />
          </mxGeometry>
        </mxCell>
        <mxCell id="3IQrkMapiq6-mRBA_fu9-51" value="" style="group;rotation=90;" parent="1" vertex="1" connectable="0">
          <mxGeometry x="460" y="620" width="80" height="120" as="geometry" />
        </mxCell>
        <mxCell id="3IQrkMapiq6-mRBA_fu9-52" value="" style="endArrow=none;html=1;strokeColor=#FF0000;" parent="3IQrkMapiq6-mRBA_fu9-51" edge="1">
          <mxGeometry width="50" height="50" relative="1" as="geometry">
            <mxPoint x="20" y="60" as="sourcePoint" />
            <mxPoint x="60" y="60" as="targetPoint" />
          </mxGeometry>
        </mxCell>
        <mxCell id="3IQrkMapiq6-mRBA_fu9-53" value="" style="endArrow=none;html=1;strokeColor=#3333FF;" parent="3IQrkMapiq6-mRBA_fu9-51" edge="1">
          <mxGeometry width="50" height="50" relative="1" as="geometry">
            <mxPoint x="60" y="60" as="sourcePoint" />
            <mxPoint x="100" y="60" as="targetPoint" />
          </mxGeometry>
        </mxCell>
        <mxCell id="3IQrkMapiq6-mRBA_fu9-54" value="" style="endArrow=none;html=1;strokeColor=#3333FF;" parent="3IQrkMapiq6-mRBA_fu9-51" edge="1">
          <mxGeometry width="50" height="50" relative="1" as="geometry">
            <mxPoint x="60" y="100" as="sourcePoint" />
            <mxPoint x="60" y="60" as="targetPoint" />
          </mxGeometry>
        </mxCell>
        <mxCell id="3IQrkMapiq6-mRBA_fu9-55" value="" style="endArrow=none;html=1;strokeColor=#3333FF;" parent="3IQrkMapiq6-mRBA_fu9-51" edge="1">
          <mxGeometry width="50" height="50" relative="1" as="geometry">
            <mxPoint x="60" y="60" as="sourcePoint" />
            <mxPoint x="60" y="20" as="targetPoint" />
          </mxGeometry>
        </mxCell>
        <mxCell id="3IQrkMapiq6-mRBA_fu9-56" value="" style="endArrow=none;html=1;strokeColor=#3333FF;" parent="3IQrkMapiq6-mRBA_fu9-51" edge="1">
          <mxGeometry width="50" height="50" relative="1" as="geometry">
            <mxPoint x="20" y="60" as="sourcePoint" />
            <mxPoint x="20" y="20" as="targetPoint" />
          </mxGeometry>
        </mxCell>
        <mxCell id="3IQrkMapiq6-mRBA_fu9-57" value="" style="endArrow=none;html=1;strokeColor=#3333FF;" parent="3IQrkMapiq6-mRBA_fu9-51" edge="1">
          <mxGeometry width="50" height="50" relative="1" as="geometry">
            <mxPoint x="20" y="100" as="sourcePoint" />
            <mxPoint x="20" y="60" as="targetPoint" />
          </mxGeometry>
        </mxCell>
        <mxCell id="3IQrkMapiq6-mRBA_fu9-58" value="" style="endArrow=none;html=1;strokeColor=#3333FF;" parent="3IQrkMapiq6-mRBA_fu9-51" edge="1">
          <mxGeometry width="50" height="50" relative="1" as="geometry">
            <mxPoint x="-20" y="60" as="sourcePoint" />
            <mxPoint x="20" y="60" as="targetPoint" />
          </mxGeometry>
        </mxCell>
        <mxCell id="3IQrkMapiq6-mRBA_fu9-61" value="" style="group;rotation=90;" parent="1" vertex="1" connectable="0">
          <mxGeometry x="540" y="620" width="80" height="120" as="geometry" />
        </mxCell>
        <mxCell id="3IQrkMapiq6-mRBA_fu9-62" value="" style="endArrow=none;html=1;strokeColor=#FF0000;" parent="3IQrkMapiq6-mRBA_fu9-61" edge="1">
          <mxGeometry width="50" height="50" relative="1" as="geometry">
            <mxPoint x="20" y="60" as="sourcePoint" />
            <mxPoint x="60" y="60" as="targetPoint" />
          </mxGeometry>
        </mxCell>
        <mxCell id="3IQrkMapiq6-mRBA_fu9-63" value="" style="endArrow=none;html=1;strokeColor=#3333FF;" parent="3IQrkMapiq6-mRBA_fu9-61" edge="1">
          <mxGeometry width="50" height="50" relative="1" as="geometry">
            <mxPoint x="60" y="60" as="sourcePoint" />
            <mxPoint x="100" y="60" as="targetPoint" />
          </mxGeometry>
        </mxCell>
        <mxCell id="3IQrkMapiq6-mRBA_fu9-64" value="" style="endArrow=none;html=1;strokeColor=#3333FF;" parent="3IQrkMapiq6-mRBA_fu9-61" edge="1">
          <mxGeometry width="50" height="50" relative="1" as="geometry">
            <mxPoint x="60" y="100" as="sourcePoint" />
            <mxPoint x="60" y="60" as="targetPoint" />
          </mxGeometry>
        </mxCell>
        <mxCell id="3IQrkMapiq6-mRBA_fu9-65" value="" style="endArrow=none;html=1;strokeColor=#3333FF;" parent="3IQrkMapiq6-mRBA_fu9-61" edge="1">
          <mxGeometry width="50" height="50" relative="1" as="geometry">
            <mxPoint x="60" y="60" as="sourcePoint" />
            <mxPoint x="60" y="20" as="targetPoint" />
          </mxGeometry>
        </mxCell>
        <mxCell id="3IQrkMapiq6-mRBA_fu9-66" value="" style="endArrow=none;html=1;strokeColor=#3333FF;" parent="3IQrkMapiq6-mRBA_fu9-61" edge="1">
          <mxGeometry width="50" height="50" relative="1" as="geometry">
            <mxPoint x="20" y="60" as="sourcePoint" />
            <mxPoint x="20" y="20" as="targetPoint" />
          </mxGeometry>
        </mxCell>
        <mxCell id="3IQrkMapiq6-mRBA_fu9-67" value="" style="endArrow=none;html=1;strokeColor=#3333FF;" parent="3IQrkMapiq6-mRBA_fu9-61" edge="1">
          <mxGeometry width="50" height="50" relative="1" as="geometry">
            <mxPoint x="20" y="100" as="sourcePoint" />
            <mxPoint x="20" y="60" as="targetPoint" />
          </mxGeometry>
        </mxCell>
        <mxCell id="3IQrkMapiq6-mRBA_fu9-68" value="" style="endArrow=none;html=1;strokeColor=#3333FF;" parent="3IQrkMapiq6-mRBA_fu9-61" edge="1">
          <mxGeometry width="50" height="50" relative="1" as="geometry">
            <mxPoint x="-20" y="60" as="sourcePoint" />
            <mxPoint x="20" y="60" as="targetPoint" />
          </mxGeometry>
        </mxCell>
        <mxCell id="3IQrkMapiq6-mRBA_fu9-78" value="" style="group;rotation=90;" parent="1" vertex="1" connectable="0">
          <mxGeometry x="300" y="620" width="80" height="120" as="geometry" />
        </mxCell>
        <mxCell id="3IQrkMapiq6-mRBA_fu9-79" value="" style="endArrow=none;html=1;strokeColor=#FF0000;strokeWidth=3;" parent="3IQrkMapiq6-mRBA_fu9-78" edge="1">
          <mxGeometry width="50" height="50" relative="1" as="geometry">
            <mxPoint x="20" y="60" as="sourcePoint" />
            <mxPoint x="60" y="60" as="targetPoint" />
          </mxGeometry>
        </mxCell>
        <mxCell id="3IQrkMapiq6-mRBA_fu9-80" value="" style="endArrow=none;html=1;strokeColor=#3333FF;" parent="3IQrkMapiq6-mRBA_fu9-78" edge="1">
          <mxGeometry width="50" height="50" relative="1" as="geometry">
            <mxPoint x="60" y="60" as="sourcePoint" />
            <mxPoint x="100" y="60" as="targetPoint" />
          </mxGeometry>
        </mxCell>
        <mxCell id="3IQrkMapiq6-mRBA_fu9-81" value="" style="endArrow=none;html=1;strokeColor=#3333FF;" parent="3IQrkMapiq6-mRBA_fu9-78" edge="1">
          <mxGeometry width="50" height="50" relative="1" as="geometry">
            <mxPoint x="60" y="100" as="sourcePoint" />
            <mxPoint x="60" y="60" as="targetPoint" />
          </mxGeometry>
        </mxCell>
        <mxCell id="3IQrkMapiq6-mRBA_fu9-82" value="" style="endArrow=none;html=1;strokeColor=#3333FF;" parent="3IQrkMapiq6-mRBA_fu9-78" edge="1">
          <mxGeometry width="50" height="50" relative="1" as="geometry">
            <mxPoint x="60" y="60" as="sourcePoint" />
            <mxPoint x="60" y="20" as="targetPoint" />
          </mxGeometry>
        </mxCell>
        <mxCell id="3IQrkMapiq6-mRBA_fu9-83" value="" style="endArrow=none;html=1;strokeColor=#3333FF;" parent="3IQrkMapiq6-mRBA_fu9-78" edge="1">
          <mxGeometry width="50" height="50" relative="1" as="geometry">
            <mxPoint x="20" y="60" as="sourcePoint" />
            <mxPoint x="20" y="20" as="targetPoint" />
          </mxGeometry>
        </mxCell>
        <mxCell id="3IQrkMapiq6-mRBA_fu9-84" value="" style="endArrow=none;html=1;strokeColor=#3333FF;" parent="3IQrkMapiq6-mRBA_fu9-78" edge="1">
          <mxGeometry width="50" height="50" relative="1" as="geometry">
            <mxPoint x="20" y="100" as="sourcePoint" />
            <mxPoint x="20" y="60" as="targetPoint" />
          </mxGeometry>
        </mxCell>
        <mxCell id="3IQrkMapiq6-mRBA_fu9-85" value="" style="endArrow=none;html=1;strokeColor=#3333FF;" parent="3IQrkMapiq6-mRBA_fu9-78" edge="1">
          <mxGeometry width="50" height="50" relative="1" as="geometry">
            <mxPoint x="-20" y="60" as="sourcePoint" />
            <mxPoint x="20" y="60" as="targetPoint" />
          </mxGeometry>
        </mxCell>
        <mxCell id="3IQrkMapiq6-mRBA_fu9-151" value="" style="endArrow=none;html=1;strokeColor=#3333FF;" parent="3IQrkMapiq6-mRBA_fu9-78" edge="1">
          <mxGeometry width="50" height="50" relative="1" as="geometry">
            <mxPoint x="335" y="590" as="sourcePoint" />
            <mxPoint x="375" y="590" as="targetPoint" />
          </mxGeometry>
        </mxCell>
        <mxCell id="3IQrkMapiq6-mRBA_fu9-95" value="" style="group;rotation=90;" parent="1" vertex="1" connectable="0">
          <mxGeometry x="550" y="630" width="80" height="120" as="geometry" />
        </mxCell>
        <mxCell id="3IQrkMapiq6-mRBA_fu9-96" value="" style="endArrow=none;html=1;strokeColor=#FF0000;" parent="3IQrkMapiq6-mRBA_fu9-95" edge="1">
          <mxGeometry width="50" height="50" relative="1" as="geometry">
            <mxPoint x="20" y="60" as="sourcePoint" />
            <mxPoint x="60" y="60" as="targetPoint" />
          </mxGeometry>
        </mxCell>
        <mxCell id="3IQrkMapiq6-mRBA_fu9-97" value="" style="endArrow=none;html=1;strokeColor=#3333FF;" parent="3IQrkMapiq6-mRBA_fu9-95" edge="1">
          <mxGeometry width="50" height="50" relative="1" as="geometry">
            <mxPoint x="60" y="60" as="sourcePoint" />
            <mxPoint x="100" y="60" as="targetPoint" />
          </mxGeometry>
        </mxCell>
        <mxCell id="3IQrkMapiq6-mRBA_fu9-98" value="" style="endArrow=none;html=1;strokeColor=#3333FF;" parent="3IQrkMapiq6-mRBA_fu9-95" edge="1">
          <mxGeometry width="50" height="50" relative="1" as="geometry">
            <mxPoint x="60" y="100" as="sourcePoint" />
            <mxPoint x="60" y="60" as="targetPoint" />
          </mxGeometry>
        </mxCell>
        <mxCell id="3IQrkMapiq6-mRBA_fu9-99" value="" style="endArrow=none;html=1;strokeColor=#3333FF;" parent="3IQrkMapiq6-mRBA_fu9-95" edge="1">
          <mxGeometry width="50" height="50" relative="1" as="geometry">
            <mxPoint x="60" y="60" as="sourcePoint" />
            <mxPoint x="60" y="20" as="targetPoint" />
          </mxGeometry>
        </mxCell>
        <mxCell id="3IQrkMapiq6-mRBA_fu9-100" value="" style="endArrow=none;html=1;strokeColor=#3333FF;" parent="3IQrkMapiq6-mRBA_fu9-95" edge="1">
          <mxGeometry width="50" height="50" relative="1" as="geometry">
            <mxPoint x="20" y="60" as="sourcePoint" />
            <mxPoint x="20" y="20" as="targetPoint" />
          </mxGeometry>
        </mxCell>
        <mxCell id="3IQrkMapiq6-mRBA_fu9-101" value="" style="endArrow=none;html=1;strokeColor=#3333FF;" parent="3IQrkMapiq6-mRBA_fu9-95" edge="1">
          <mxGeometry width="50" height="50" relative="1" as="geometry">
            <mxPoint x="20" y="100" as="sourcePoint" />
            <mxPoint x="20" y="60" as="targetPoint" />
          </mxGeometry>
        </mxCell>
        <mxCell id="3IQrkMapiq6-mRBA_fu9-102" value="" style="endArrow=none;html=1;strokeColor=#3333FF;" parent="3IQrkMapiq6-mRBA_fu9-95" edge="1">
          <mxGeometry width="50" height="50" relative="1" as="geometry">
            <mxPoint x="-20" y="60" as="sourcePoint" />
            <mxPoint x="20" y="60" as="targetPoint" />
          </mxGeometry>
        </mxCell>
        <mxCell id="_ctNI8eUerikAIXpXf3--1" value="" style="group" vertex="1" connectable="0" parent="1">
          <mxGeometry x="120" y="680" width="200" height="160" as="geometry" />
        </mxCell>
        <mxCell id="3IQrkMapiq6-mRBA_fu9-86" value="" style="group" parent="_ctNI8eUerikAIXpXf3--1" vertex="1" connectable="0">
          <mxGeometry width="140" height="120" as="geometry" />
        </mxCell>
        <mxCell id="3IQrkMapiq6-mRBA_fu9-87" value="" style="endArrow=none;html=1;strokeColor=#FF0000;strokeWidth=3;" parent="3IQrkMapiq6-mRBA_fu9-86" edge="1">
          <mxGeometry width="50" height="50" relative="1" as="geometry">
            <mxPoint x="40" y="80" as="sourcePoint" />
            <mxPoint x="40" y="40" as="targetPoint" />
          </mxGeometry>
        </mxCell>
        <mxCell id="3IQrkMapiq6-mRBA_fu9-88" value="" style="endArrow=none;html=1;strokeColor=#3333FF;" parent="3IQrkMapiq6-mRBA_fu9-86" edge="1">
          <mxGeometry width="50" height="50" relative="1" as="geometry">
            <mxPoint x="40" y="40" as="sourcePoint" />
            <mxPoint x="40" as="targetPoint" />
          </mxGeometry>
        </mxCell>
        <mxCell id="3IQrkMapiq6-mRBA_fu9-89" value="" style="endArrow=none;html=1;strokeColor=#3333FF;" parent="3IQrkMapiq6-mRBA_fu9-86" edge="1">
          <mxGeometry width="50" height="50" relative="1" as="geometry">
            <mxPoint x="80" y="40" as="sourcePoint" />
            <mxPoint x="40" y="40" as="targetPoint" />
          </mxGeometry>
        </mxCell>
        <mxCell id="3IQrkMapiq6-mRBA_fu9-90" value="" style="endArrow=none;html=1;strokeColor=#3333FF;" parent="3IQrkMapiq6-mRBA_fu9-86" edge="1">
          <mxGeometry width="50" height="50" relative="1" as="geometry">
            <mxPoint x="40" y="40" as="sourcePoint" />
            <mxPoint y="40" as="targetPoint" />
          </mxGeometry>
        </mxCell>
        <mxCell id="3IQrkMapiq6-mRBA_fu9-91" value="" style="endArrow=none;html=1;strokeColor=#3333FF;" parent="3IQrkMapiq6-mRBA_fu9-86" edge="1">
          <mxGeometry width="50" height="50" relative="1" as="geometry">
            <mxPoint x="40" y="80" as="sourcePoint" />
            <mxPoint y="80" as="targetPoint" />
          </mxGeometry>
        </mxCell>
        <mxCell id="3IQrkMapiq6-mRBA_fu9-92" value="" style="endArrow=none;html=1;strokeColor=#3333FF;" parent="3IQrkMapiq6-mRBA_fu9-86" edge="1">
          <mxGeometry width="50" height="50" relative="1" as="geometry">
            <mxPoint x="80" y="80" as="sourcePoint" />
            <mxPoint x="40" y="80" as="targetPoint" />
          </mxGeometry>
        </mxCell>
        <mxCell id="3IQrkMapiq6-mRBA_fu9-93" value="" style="endArrow=none;html=1;strokeColor=#3333FF;" parent="3IQrkMapiq6-mRBA_fu9-86" edge="1">
          <mxGeometry width="50" height="50" relative="1" as="geometry">
            <mxPoint x="40" y="120" as="sourcePoint" />
            <mxPoint x="40" y="80" as="targetPoint" />
          </mxGeometry>
        </mxCell>
        <mxCell id="3IQrkMapiq6-mRBA_fu9-111" value="" style="group;rotation=90;" parent="3IQrkMapiq6-mRBA_fu9-86" vertex="1" connectable="0">
          <mxGeometry x="60" y="-60" width="80" height="120" as="geometry" />
        </mxCell>
        <mxCell id="3IQrkMapiq6-mRBA_fu9-112" value="" style="endArrow=none;html=1;strokeColor=#FF0000;strokeWidth=3;" parent="3IQrkMapiq6-mRBA_fu9-111" edge="1">
          <mxGeometry width="50" height="50" relative="1" as="geometry">
            <mxPoint x="20" y="60" as="sourcePoint" />
            <mxPoint x="60" y="60" as="targetPoint" />
          </mxGeometry>
        </mxCell>
        <mxCell id="3IQrkMapiq6-mRBA_fu9-113" value="" style="endArrow=none;html=1;strokeColor=#3333FF;" parent="3IQrkMapiq6-mRBA_fu9-111" edge="1">
          <mxGeometry width="50" height="50" relative="1" as="geometry">
            <mxPoint x="60" y="60" as="sourcePoint" />
            <mxPoint x="100" y="60" as="targetPoint" />
          </mxGeometry>
        </mxCell>
        <mxCell id="3IQrkMapiq6-mRBA_fu9-114" value="" style="endArrow=none;html=1;strokeColor=#3333FF;" parent="3IQrkMapiq6-mRBA_fu9-111" edge="1">
          <mxGeometry width="50" height="50" relative="1" as="geometry">
            <mxPoint x="60" y="100" as="sourcePoint" />
            <mxPoint x="60" y="60" as="targetPoint" />
          </mxGeometry>
        </mxCell>
        <mxCell id="3IQrkMapiq6-mRBA_fu9-115" value="" style="endArrow=none;html=1;strokeColor=#3333FF;" parent="3IQrkMapiq6-mRBA_fu9-111" edge="1">
          <mxGeometry width="50" height="50" relative="1" as="geometry">
            <mxPoint x="60" y="60" as="sourcePoint" />
            <mxPoint x="60" y="20" as="targetPoint" />
          </mxGeometry>
        </mxCell>
        <mxCell id="3IQrkMapiq6-mRBA_fu9-116" value="" style="endArrow=none;html=1;strokeColor=#3333FF;" parent="3IQrkMapiq6-mRBA_fu9-111" edge="1">
          <mxGeometry width="50" height="50" relative="1" as="geometry">
            <mxPoint x="20" y="60" as="sourcePoint" />
            <mxPoint x="20" y="20" as="targetPoint" />
          </mxGeometry>
        </mxCell>
        <mxCell id="3IQrkMapiq6-mRBA_fu9-117" value="" style="endArrow=none;html=1;strokeColor=#3333FF;" parent="3IQrkMapiq6-mRBA_fu9-111" edge="1">
          <mxGeometry width="50" height="50" relative="1" as="geometry">
            <mxPoint x="20" y="100" as="sourcePoint" />
            <mxPoint x="20" y="60" as="targetPoint" />
          </mxGeometry>
        </mxCell>
        <mxCell id="3IQrkMapiq6-mRBA_fu9-118" value="" style="endArrow=none;html=1;strokeColor=#3333FF;" parent="3IQrkMapiq6-mRBA_fu9-111" edge="1">
          <mxGeometry width="50" height="50" relative="1" as="geometry">
            <mxPoint x="-20" y="60" as="sourcePoint" />
            <mxPoint x="20" y="60" as="targetPoint" />
          </mxGeometry>
        </mxCell>
        <mxCell id="3IQrkMapiq6-mRBA_fu9-152" value="" style="group;rotation=90;" parent="_ctNI8eUerikAIXpXf3--1" vertex="1" connectable="0">
          <mxGeometry x="100" y="-20" width="80" height="120" as="geometry" />
        </mxCell>
        <mxCell id="3IQrkMapiq6-mRBA_fu9-153" value="" style="endArrow=none;html=1;strokeColor=#FF0000;strokeWidth=3;" parent="3IQrkMapiq6-mRBA_fu9-152" edge="1">
          <mxGeometry width="50" height="50" relative="1" as="geometry">
            <mxPoint x="20" y="60" as="sourcePoint" />
            <mxPoint x="60" y="60" as="targetPoint" />
          </mxGeometry>
        </mxCell>
        <mxCell id="3IQrkMapiq6-mRBA_fu9-154" value="" style="endArrow=none;html=1;strokeColor=#3333FF;" parent="3IQrkMapiq6-mRBA_fu9-152" edge="1">
          <mxGeometry width="50" height="50" relative="1" as="geometry">
            <mxPoint x="60" y="60" as="sourcePoint" />
            <mxPoint x="100" y="60" as="targetPoint" />
          </mxGeometry>
        </mxCell>
        <mxCell id="3IQrkMapiq6-mRBA_fu9-155" value="" style="endArrow=none;html=1;strokeColor=#3333FF;" parent="3IQrkMapiq6-mRBA_fu9-152" edge="1">
          <mxGeometry width="50" height="50" relative="1" as="geometry">
            <mxPoint x="60" y="100" as="sourcePoint" />
            <mxPoint x="60" y="60" as="targetPoint" />
          </mxGeometry>
        </mxCell>
        <mxCell id="3IQrkMapiq6-mRBA_fu9-156" value="" style="endArrow=none;html=1;strokeColor=#3333FF;" parent="3IQrkMapiq6-mRBA_fu9-152" edge="1">
          <mxGeometry width="50" height="50" relative="1" as="geometry">
            <mxPoint x="60" y="60" as="sourcePoint" />
            <mxPoint x="60" y="20" as="targetPoint" />
          </mxGeometry>
        </mxCell>
        <mxCell id="3IQrkMapiq6-mRBA_fu9-157" value="" style="endArrow=none;html=1;strokeColor=#3333FF;" parent="3IQrkMapiq6-mRBA_fu9-152" edge="1">
          <mxGeometry width="50" height="50" relative="1" as="geometry">
            <mxPoint x="20" y="60" as="sourcePoint" />
            <mxPoint x="20" y="20" as="targetPoint" />
          </mxGeometry>
        </mxCell>
        <mxCell id="3IQrkMapiq6-mRBA_fu9-158" value="" style="endArrow=none;html=1;strokeColor=#3333FF;" parent="3IQrkMapiq6-mRBA_fu9-152" edge="1">
          <mxGeometry width="50" height="50" relative="1" as="geometry">
            <mxPoint x="20" y="100" as="sourcePoint" />
            <mxPoint x="20" y="60" as="targetPoint" />
          </mxGeometry>
        </mxCell>
        <mxCell id="3IQrkMapiq6-mRBA_fu9-159" value="" style="endArrow=none;html=1;strokeColor=#3333FF;" parent="3IQrkMapiq6-mRBA_fu9-152" edge="1">
          <mxGeometry width="50" height="50" relative="1" as="geometry">
            <mxPoint x="-20" y="60" as="sourcePoint" />
            <mxPoint x="20" y="60" as="targetPoint" />
          </mxGeometry>
        </mxCell>
        <mxCell id="3IQrkMapiq6-mRBA_fu9-160" value="" style="endArrow=none;html=1;strokeColor=#3333FF;" parent="3IQrkMapiq6-mRBA_fu9-152" edge="1">
          <mxGeometry width="50" height="50" relative="1" as="geometry">
            <mxPoint x="335" y="590" as="sourcePoint" />
            <mxPoint x="375" y="590" as="targetPoint" />
          </mxGeometry>
        </mxCell>
        <mxCell id="3IQrkMapiq6-mRBA_fu9-171" value="" style="endArrow=none;html=1;strokeWidth=3;" parent="3IQrkMapiq6-mRBA_fu9-152" edge="1">
          <mxGeometry width="50" height="50" relative="1" as="geometry">
            <mxPoint x="20" y="60" as="sourcePoint" />
            <mxPoint x="20" y="20" as="targetPoint" />
          </mxGeometry>
        </mxCell>
        <mxCell id="3IQrkMapiq6-mRBA_fu9-161" value="" style="group;rotation=0;" parent="_ctNI8eUerikAIXpXf3--1" vertex="1" connectable="0">
          <mxGeometry x="40" y="40" width="80" height="120" as="geometry" />
        </mxCell>
        <mxCell id="3IQrkMapiq6-mRBA_fu9-162" value="" style="endArrow=none;html=1;strokeColor=#FF0000;strokeWidth=3;" parent="3IQrkMapiq6-mRBA_fu9-161" edge="1">
          <mxGeometry width="50" height="50" relative="1" as="geometry">
            <mxPoint x="40" y="80" as="sourcePoint" />
            <mxPoint x="40" y="40" as="targetPoint" />
          </mxGeometry>
        </mxCell>
        <mxCell id="3IQrkMapiq6-mRBA_fu9-163" value="" style="endArrow=none;html=1;strokeColor=#3333FF;" parent="3IQrkMapiq6-mRBA_fu9-161" edge="1">
          <mxGeometry width="50" height="50" relative="1" as="geometry">
            <mxPoint x="40" y="40" as="sourcePoint" />
            <mxPoint x="40" as="targetPoint" />
          </mxGeometry>
        </mxCell>
        <mxCell id="3IQrkMapiq6-mRBA_fu9-164" value="" style="endArrow=none;html=1;strokeColor=#3333FF;" parent="3IQrkMapiq6-mRBA_fu9-161" edge="1">
          <mxGeometry width="50" height="50" relative="1" as="geometry">
            <mxPoint x="80" y="40" as="sourcePoint" />
            <mxPoint x="40" y="40" as="targetPoint" />
          </mxGeometry>
        </mxCell>
        <mxCell id="3IQrkMapiq6-mRBA_fu9-165" value="" style="endArrow=none;html=1;strokeColor=#3333FF;" parent="3IQrkMapiq6-mRBA_fu9-161" edge="1">
          <mxGeometry width="50" height="50" relative="1" as="geometry">
            <mxPoint x="40" y="40" as="sourcePoint" />
            <mxPoint y="40" as="targetPoint" />
          </mxGeometry>
        </mxCell>
        <mxCell id="3IQrkMapiq6-mRBA_fu9-166" value="" style="endArrow=none;html=1;strokeColor=#3333FF;" parent="3IQrkMapiq6-mRBA_fu9-161" edge="1">
          <mxGeometry width="50" height="50" relative="1" as="geometry">
            <mxPoint x="40" y="80" as="sourcePoint" />
            <mxPoint y="80" as="targetPoint" />
          </mxGeometry>
        </mxCell>
        <mxCell id="3IQrkMapiq6-mRBA_fu9-167" value="" style="endArrow=none;html=1;strokeColor=#3333FF;" parent="3IQrkMapiq6-mRBA_fu9-161" edge="1">
          <mxGeometry width="50" height="50" relative="1" as="geometry">
            <mxPoint x="80" y="80" as="sourcePoint" />
            <mxPoint x="40" y="80" as="targetPoint" />
          </mxGeometry>
        </mxCell>
        <mxCell id="3IQrkMapiq6-mRBA_fu9-168" value="" style="endArrow=none;html=1;strokeColor=#3333FF;" parent="3IQrkMapiq6-mRBA_fu9-161" edge="1">
          <mxGeometry width="50" height="50" relative="1" as="geometry">
            <mxPoint x="40" y="120" as="sourcePoint" />
            <mxPoint x="40" y="80" as="targetPoint" />
          </mxGeometry>
        </mxCell>
        <mxCell id="3IQrkMapiq6-mRBA_fu9-43" value="" style="endArrow=none;html=1;strokeWidth=3;" parent="3IQrkMapiq6-mRBA_fu9-161" edge="1">
          <mxGeometry width="50" height="50" relative="1" as="geometry">
            <mxPoint x="40" y="40" as="sourcePoint" />
            <mxPoint y="40" as="targetPoint" />
          </mxGeometry>
        </mxCell>
        <mxCell id="_ctNI8eUerikAIXpXf3--2" value="" style="group" vertex="1" connectable="0" parent="1">
          <mxGeometry x="200" y="760" width="200" height="160" as="geometry" />
        </mxCell>
        <mxCell id="_ctNI8eUerikAIXpXf3--3" value="" style="group" vertex="1" connectable="0" parent="_ctNI8eUerikAIXpXf3--2">
          <mxGeometry width="200" height="120" as="geometry" />
        </mxCell>
        <mxCell id="_ctNI8eUerikAIXpXf3--4" value="" style="endArrow=none;html=1;strokeColor=#FF0000;strokeWidth=3;" edge="1" parent="_ctNI8eUerikAIXpXf3--3">
          <mxGeometry width="50" height="50" relative="1" as="geometry">
            <mxPoint x="40" y="80" as="sourcePoint" />
            <mxPoint x="40" y="40" as="targetPoint" />
          </mxGeometry>
        </mxCell>
        <mxCell id="_ctNI8eUerikAIXpXf3--5" value="" style="endArrow=none;html=1;strokeColor=#3333FF;" edge="1" parent="_ctNI8eUerikAIXpXf3--3">
          <mxGeometry width="50" height="50" relative="1" as="geometry">
            <mxPoint x="40" y="40" as="sourcePoint" />
            <mxPoint x="40" as="targetPoint" />
          </mxGeometry>
        </mxCell>
        <mxCell id="_ctNI8eUerikAIXpXf3--6" value="" style="endArrow=none;html=1;strokeColor=#3333FF;" edge="1" parent="_ctNI8eUerikAIXpXf3--3">
          <mxGeometry width="50" height="50" relative="1" as="geometry">
            <mxPoint x="80" y="40" as="sourcePoint" />
            <mxPoint x="40" y="40" as="targetPoint" />
          </mxGeometry>
        </mxCell>
        <mxCell id="_ctNI8eUerikAIXpXf3--7" value="" style="endArrow=none;html=1;strokeColor=#3333FF;" edge="1" parent="_ctNI8eUerikAIXpXf3--3">
          <mxGeometry width="50" height="50" relative="1" as="geometry">
            <mxPoint x="40" y="40" as="sourcePoint" />
            <mxPoint y="40" as="targetPoint" />
          </mxGeometry>
        </mxCell>
        <mxCell id="_ctNI8eUerikAIXpXf3--8" value="" style="endArrow=none;html=1;strokeColor=#3333FF;" edge="1" parent="_ctNI8eUerikAIXpXf3--3">
          <mxGeometry width="50" height="50" relative="1" as="geometry">
            <mxPoint x="40" y="80" as="sourcePoint" />
            <mxPoint y="80" as="targetPoint" />
          </mxGeometry>
        </mxCell>
        <mxCell id="_ctNI8eUerikAIXpXf3--9" value="" style="endArrow=none;html=1;strokeColor=#3333FF;" edge="1" parent="_ctNI8eUerikAIXpXf3--3">
          <mxGeometry width="50" height="50" relative="1" as="geometry">
            <mxPoint x="80" y="80" as="sourcePoint" />
            <mxPoint x="40" y="80" as="targetPoint" />
          </mxGeometry>
        </mxCell>
        <mxCell id="_ctNI8eUerikAIXpXf3--10" value="" style="endArrow=none;html=1;strokeColor=#3333FF;" edge="1" parent="_ctNI8eUerikAIXpXf3--3">
          <mxGeometry width="50" height="50" relative="1" as="geometry">
            <mxPoint x="40" y="120" as="sourcePoint" />
            <mxPoint x="40" y="80" as="targetPoint" />
          </mxGeometry>
        </mxCell>
        <mxCell id="_ctNI8eUerikAIXpXf3--11" value="" style="group;rotation=90;" vertex="1" connectable="0" parent="_ctNI8eUerikAIXpXf3--3">
          <mxGeometry x="60" y="-60" width="140" height="120" as="geometry" />
        </mxCell>
        <mxCell id="_ctNI8eUerikAIXpXf3--12" value="" style="endArrow=none;html=1;strokeColor=#FF0000;strokeWidth=3;" edge="1" parent="_ctNI8eUerikAIXpXf3--11">
          <mxGeometry width="50" height="50" relative="1" as="geometry">
            <mxPoint x="20" y="60" as="sourcePoint" />
            <mxPoint x="60" y="60" as="targetPoint" />
          </mxGeometry>
        </mxCell>
        <mxCell id="_ctNI8eUerikAIXpXf3--13" value="" style="endArrow=none;html=1;strokeColor=#3333FF;" edge="1" parent="_ctNI8eUerikAIXpXf3--11">
          <mxGeometry width="50" height="50" relative="1" as="geometry">
            <mxPoint x="60" y="60" as="sourcePoint" />
            <mxPoint x="100" y="60" as="targetPoint" />
          </mxGeometry>
        </mxCell>
        <mxCell id="_ctNI8eUerikAIXpXf3--14" value="" style="endArrow=none;html=1;strokeColor=#3333FF;" edge="1" parent="_ctNI8eUerikAIXpXf3--11">
          <mxGeometry width="50" height="50" relative="1" as="geometry">
            <mxPoint x="60" y="100" as="sourcePoint" />
            <mxPoint x="60" y="60" as="targetPoint" />
          </mxGeometry>
        </mxCell>
        <mxCell id="_ctNI8eUerikAIXpXf3--15" value="" style="endArrow=none;html=1;strokeColor=#3333FF;" edge="1" parent="_ctNI8eUerikAIXpXf3--11">
          <mxGeometry width="50" height="50" relative="1" as="geometry">
            <mxPoint x="60" y="60" as="sourcePoint" />
            <mxPoint x="60" y="20" as="targetPoint" />
          </mxGeometry>
        </mxCell>
        <mxCell id="_ctNI8eUerikAIXpXf3--16" value="" style="endArrow=none;html=1;strokeColor=#3333FF;" edge="1" parent="_ctNI8eUerikAIXpXf3--11">
          <mxGeometry width="50" height="50" relative="1" as="geometry">
            <mxPoint x="20" y="60" as="sourcePoint" />
            <mxPoint x="20" y="20" as="targetPoint" />
          </mxGeometry>
        </mxCell>
        <mxCell id="_ctNI8eUerikAIXpXf3--17" value="" style="endArrow=none;html=1;strokeColor=#3333FF;" edge="1" parent="_ctNI8eUerikAIXpXf3--11">
          <mxGeometry width="50" height="50" relative="1" as="geometry">
            <mxPoint x="20" y="100" as="sourcePoint" />
            <mxPoint x="20" y="60" as="targetPoint" />
          </mxGeometry>
        </mxCell>
        <mxCell id="_ctNI8eUerikAIXpXf3--18" value="" style="endArrow=none;html=1;strokeColor=#3333FF;" edge="1" parent="_ctNI8eUerikAIXpXf3--11">
          <mxGeometry width="50" height="50" relative="1" as="geometry">
            <mxPoint x="-20" y="60" as="sourcePoint" />
            <mxPoint x="20" y="60" as="targetPoint" />
          </mxGeometry>
        </mxCell>
        <mxCell id="_ctNI8eUerikAIXpXf3--38" value="" style="endArrow=none;html=1;strokeWidth=3;" edge="1" parent="_ctNI8eUerikAIXpXf3--11">
          <mxGeometry width="50" height="50" relative="1" as="geometry">
            <mxPoint x="20" y="60" as="sourcePoint" />
            <mxPoint x="20" y="20" as="targetPoint" />
          </mxGeometry>
        </mxCell>
        <mxCell id="3IQrkMapiq6-mRBA_fu9-143" value="" style="group;rotation=0;" parent="_ctNI8eUerikAIXpXf3--11" vertex="1" connectable="0">
          <mxGeometry x="60" y="-20" width="80" height="120" as="geometry" />
        </mxCell>
        <mxCell id="3IQrkMapiq6-mRBA_fu9-144" value="" style="endArrow=none;html=1;strokeColor=#FF0000;strokeWidth=3;" parent="3IQrkMapiq6-mRBA_fu9-143" edge="1">
          <mxGeometry width="50" height="50" relative="1" as="geometry">
            <mxPoint x="40" y="80" as="sourcePoint" />
            <mxPoint x="40" y="40" as="targetPoint" />
          </mxGeometry>
        </mxCell>
        <mxCell id="3IQrkMapiq6-mRBA_fu9-145" value="" style="endArrow=none;html=1;strokeColor=#3333FF;" parent="3IQrkMapiq6-mRBA_fu9-143" edge="1">
          <mxGeometry width="50" height="50" relative="1" as="geometry">
            <mxPoint x="40" y="40" as="sourcePoint" />
            <mxPoint x="40" as="targetPoint" />
          </mxGeometry>
        </mxCell>
        <mxCell id="3IQrkMapiq6-mRBA_fu9-146" value="" style="endArrow=none;html=1;strokeColor=#3333FF;" parent="3IQrkMapiq6-mRBA_fu9-143" edge="1">
          <mxGeometry width="50" height="50" relative="1" as="geometry">
            <mxPoint x="80" y="40" as="sourcePoint" />
            <mxPoint x="40" y="40" as="targetPoint" />
          </mxGeometry>
        </mxCell>
        <mxCell id="3IQrkMapiq6-mRBA_fu9-147" value="" style="endArrow=none;html=1;strokeColor=#3333FF;" parent="3IQrkMapiq6-mRBA_fu9-143" edge="1">
          <mxGeometry width="50" height="50" relative="1" as="geometry">
            <mxPoint x="40" y="40" as="sourcePoint" />
            <mxPoint y="40" as="targetPoint" />
          </mxGeometry>
        </mxCell>
        <mxCell id="3IQrkMapiq6-mRBA_fu9-148" value="" style="endArrow=none;html=1;strokeColor=#3333FF;" parent="3IQrkMapiq6-mRBA_fu9-143" edge="1">
          <mxGeometry width="50" height="50" relative="1" as="geometry">
            <mxPoint x="40" y="80" as="sourcePoint" />
            <mxPoint y="80" as="targetPoint" />
          </mxGeometry>
        </mxCell>
        <mxCell id="3IQrkMapiq6-mRBA_fu9-149" value="" style="endArrow=none;html=1;strokeColor=#3333FF;" parent="3IQrkMapiq6-mRBA_fu9-143" edge="1">
          <mxGeometry width="50" height="50" relative="1" as="geometry">
            <mxPoint x="80" y="80" as="sourcePoint" />
            <mxPoint x="40" y="80" as="targetPoint" />
          </mxGeometry>
        </mxCell>
        <mxCell id="3IQrkMapiq6-mRBA_fu9-150" value="" style="endArrow=none;html=1;strokeColor=#3333FF;" parent="3IQrkMapiq6-mRBA_fu9-143" edge="1">
          <mxGeometry width="50" height="50" relative="1" as="geometry">
            <mxPoint x="40" y="120" as="sourcePoint" />
            <mxPoint x="40" y="80" as="targetPoint" />
          </mxGeometry>
        </mxCell>
        <mxCell id="_ctNI8eUerikAIXpXf3--19" value="" style="group;rotation=90;" vertex="1" connectable="0" parent="_ctNI8eUerikAIXpXf3--2">
          <mxGeometry x="100" y="-20" width="80" height="120" as="geometry" />
        </mxCell>
        <mxCell id="_ctNI8eUerikAIXpXf3--20" value="" style="endArrow=none;html=1;strokeColor=#FF0000;strokeWidth=3;" edge="1" parent="_ctNI8eUerikAIXpXf3--19">
          <mxGeometry width="50" height="50" relative="1" as="geometry">
            <mxPoint x="20" y="60" as="sourcePoint" />
            <mxPoint x="60" y="60" as="targetPoint" />
          </mxGeometry>
        </mxCell>
        <mxCell id="_ctNI8eUerikAIXpXf3--21" value="" style="endArrow=none;html=1;strokeColor=#3333FF;" edge="1" parent="_ctNI8eUerikAIXpXf3--19">
          <mxGeometry width="50" height="50" relative="1" as="geometry">
            <mxPoint x="60" y="60" as="sourcePoint" />
            <mxPoint x="100" y="60" as="targetPoint" />
          </mxGeometry>
        </mxCell>
        <mxCell id="_ctNI8eUerikAIXpXf3--22" value="" style="endArrow=none;html=1;strokeColor=#3333FF;" edge="1" parent="_ctNI8eUerikAIXpXf3--19">
          <mxGeometry width="50" height="50" relative="1" as="geometry">
            <mxPoint x="60" y="100" as="sourcePoint" />
            <mxPoint x="60" y="60" as="targetPoint" />
          </mxGeometry>
        </mxCell>
        <mxCell id="_ctNI8eUerikAIXpXf3--23" value="" style="endArrow=none;html=1;strokeColor=#3333FF;" edge="1" parent="_ctNI8eUerikAIXpXf3--19">
          <mxGeometry width="50" height="50" relative="1" as="geometry">
            <mxPoint x="60" y="60" as="sourcePoint" />
            <mxPoint x="60" y="20" as="targetPoint" />
          </mxGeometry>
        </mxCell>
        <mxCell id="_ctNI8eUerikAIXpXf3--24" value="" style="endArrow=none;html=1;strokeColor=#3333FF;" edge="1" parent="_ctNI8eUerikAIXpXf3--19">
          <mxGeometry width="50" height="50" relative="1" as="geometry">
            <mxPoint x="20" y="60" as="sourcePoint" />
            <mxPoint x="20" y="20" as="targetPoint" />
          </mxGeometry>
        </mxCell>
        <mxCell id="_ctNI8eUerikAIXpXf3--25" value="" style="endArrow=none;html=1;strokeColor=#3333FF;" edge="1" parent="_ctNI8eUerikAIXpXf3--19">
          <mxGeometry width="50" height="50" relative="1" as="geometry">
            <mxPoint x="20" y="100" as="sourcePoint" />
            <mxPoint x="20" y="60" as="targetPoint" />
          </mxGeometry>
        </mxCell>
        <mxCell id="_ctNI8eUerikAIXpXf3--26" value="" style="endArrow=none;html=1;strokeColor=#3333FF;" edge="1" parent="_ctNI8eUerikAIXpXf3--19">
          <mxGeometry width="50" height="50" relative="1" as="geometry">
            <mxPoint x="-20" y="60" as="sourcePoint" />
            <mxPoint x="20" y="60" as="targetPoint" />
          </mxGeometry>
        </mxCell>
        <mxCell id="_ctNI8eUerikAIXpXf3--27" value="" style="endArrow=none;html=1;strokeColor=#3333FF;" edge="1" parent="_ctNI8eUerikAIXpXf3--19">
          <mxGeometry width="50" height="50" relative="1" as="geometry">
            <mxPoint x="335" y="590" as="sourcePoint" />
            <mxPoint x="375" y="590" as="targetPoint" />
          </mxGeometry>
        </mxCell>
        <mxCell id="_ctNI8eUerikAIXpXf3--28" value="" style="endArrow=none;html=1;strokeWidth=3;" edge="1" parent="_ctNI8eUerikAIXpXf3--19">
          <mxGeometry width="50" height="50" relative="1" as="geometry">
            <mxPoint x="20" y="60" as="sourcePoint" />
            <mxPoint x="20" y="20" as="targetPoint" />
          </mxGeometry>
        </mxCell>
        <mxCell id="_ctNI8eUerikAIXpXf3--29" value="" style="group;rotation=0;" vertex="1" connectable="0" parent="_ctNI8eUerikAIXpXf3--2">
          <mxGeometry x="40" y="40" width="80" height="120" as="geometry" />
        </mxCell>
        <mxCell id="_ctNI8eUerikAIXpXf3--30" value="" style="endArrow=none;html=1;strokeColor=#FF0000;strokeWidth=3;" edge="1" parent="_ctNI8eUerikAIXpXf3--29">
          <mxGeometry width="50" height="50" relative="1" as="geometry">
            <mxPoint x="40" y="80" as="sourcePoint" />
            <mxPoint x="40" y="40" as="targetPoint" />
          </mxGeometry>
        </mxCell>
        <mxCell id="_ctNI8eUerikAIXpXf3--31" value="" style="endArrow=none;html=1;strokeColor=#3333FF;" edge="1" parent="_ctNI8eUerikAIXpXf3--29">
          <mxGeometry width="50" height="50" relative="1" as="geometry">
            <mxPoint x="40" y="40" as="sourcePoint" />
            <mxPoint x="40" as="targetPoint" />
          </mxGeometry>
        </mxCell>
        <mxCell id="_ctNI8eUerikAIXpXf3--32" value="" style="endArrow=none;html=1;strokeColor=#3333FF;" edge="1" parent="_ctNI8eUerikAIXpXf3--29">
          <mxGeometry width="50" height="50" relative="1" as="geometry">
            <mxPoint x="80" y="40" as="sourcePoint" />
            <mxPoint x="40" y="40" as="targetPoint" />
          </mxGeometry>
        </mxCell>
        <mxCell id="_ctNI8eUerikAIXpXf3--33" value="" style="endArrow=none;html=1;strokeColor=#3333FF;" edge="1" parent="_ctNI8eUerikAIXpXf3--29">
          <mxGeometry width="50" height="50" relative="1" as="geometry">
            <mxPoint x="40" y="40" as="sourcePoint" />
            <mxPoint y="40" as="targetPoint" />
          </mxGeometry>
        </mxCell>
        <mxCell id="_ctNI8eUerikAIXpXf3--34" value="" style="endArrow=none;html=1;strokeColor=#3333FF;" edge="1" parent="_ctNI8eUerikAIXpXf3--29">
          <mxGeometry width="50" height="50" relative="1" as="geometry">
            <mxPoint x="40" y="80" as="sourcePoint" />
            <mxPoint y="80" as="targetPoint" />
          </mxGeometry>
        </mxCell>
        <mxCell id="_ctNI8eUerikAIXpXf3--35" value="" style="endArrow=none;html=1;strokeColor=#3333FF;" edge="1" parent="_ctNI8eUerikAIXpXf3--29">
          <mxGeometry width="50" height="50" relative="1" as="geometry">
            <mxPoint x="80" y="80" as="sourcePoint" />
            <mxPoint x="40" y="80" as="targetPoint" />
          </mxGeometry>
        </mxCell>
        <mxCell id="_ctNI8eUerikAIXpXf3--36" value="" style="endArrow=none;html=1;strokeColor=#3333FF;" edge="1" parent="_ctNI8eUerikAIXpXf3--29">
          <mxGeometry width="50" height="50" relative="1" as="geometry">
            <mxPoint x="40" y="120" as="sourcePoint" />
            <mxPoint x="40" y="80" as="targetPoint" />
          </mxGeometry>
        </mxCell>
        <mxCell id="_ctNI8eUerikAIXpXf3--37" value="" style="endArrow=none;html=1;strokeWidth=3;" edge="1" parent="_ctNI8eUerikAIXpXf3--29">
          <mxGeometry width="50" height="50" relative="1" as="geometry">
            <mxPoint x="40" y="40" as="sourcePoint" />
            <mxPoint y="40" as="targetPoint" />
          </mxGeometry>
        </mxCell>
        <mxCell id="_ctNI8eUerikAIXpXf3--39" value="" style="endArrow=none;html=1;strokeWidth=3;" edge="1" parent="1">
          <mxGeometry width="50" height="50" relative="1" as="geometry">
            <mxPoint x="240" y="800" as="sourcePoint" />
            <mxPoint x="200" y="800" as="targetPoint" />
          </mxGeometry>
        </mxCell>
        <mxCell id="_ctNI8eUerikAIXpXf3--40" value="" style="group;rotation=90;" vertex="1" connectable="0" parent="1">
          <mxGeometry x="140" y="780" width="120" height="160" as="geometry" />
        </mxCell>
        <mxCell id="_ctNI8eUerikAIXpXf3--41" value="" style="endArrow=none;html=1;strokeColor=#FF0000;strokeWidth=3;" edge="1" parent="_ctNI8eUerikAIXpXf3--40">
          <mxGeometry width="50" height="50" relative="1" as="geometry">
            <mxPoint x="20" y="60" as="sourcePoint" />
            <mxPoint x="60" y="60" as="targetPoint" />
          </mxGeometry>
        </mxCell>
        <mxCell id="_ctNI8eUerikAIXpXf3--42" value="" style="endArrow=none;html=1;strokeColor=#3333FF;" edge="1" parent="_ctNI8eUerikAIXpXf3--40">
          <mxGeometry width="50" height="50" relative="1" as="geometry">
            <mxPoint x="60" y="60" as="sourcePoint" />
            <mxPoint x="100" y="60" as="targetPoint" />
          </mxGeometry>
        </mxCell>
        <mxCell id="_ctNI8eUerikAIXpXf3--43" value="" style="endArrow=none;html=1;strokeColor=#3333FF;" edge="1" parent="_ctNI8eUerikAIXpXf3--40">
          <mxGeometry width="50" height="50" relative="1" as="geometry">
            <mxPoint x="60" y="100" as="sourcePoint" />
            <mxPoint x="60" y="60" as="targetPoint" />
          </mxGeometry>
        </mxCell>
        <mxCell id="_ctNI8eUerikAIXpXf3--44" value="" style="endArrow=none;html=1;strokeColor=#3333FF;" edge="1" parent="_ctNI8eUerikAIXpXf3--40">
          <mxGeometry width="50" height="50" relative="1" as="geometry">
            <mxPoint x="60" y="60" as="sourcePoint" />
            <mxPoint x="60" y="20" as="targetPoint" />
          </mxGeometry>
        </mxCell>
        <mxCell id="_ctNI8eUerikAIXpXf3--45" value="" style="endArrow=none;html=1;strokeColor=#3333FF;" edge="1" parent="_ctNI8eUerikAIXpXf3--40">
          <mxGeometry width="50" height="50" relative="1" as="geometry">
            <mxPoint x="20" y="60" as="sourcePoint" />
            <mxPoint x="20" y="20" as="targetPoint" />
          </mxGeometry>
        </mxCell>
        <mxCell id="_ctNI8eUerikAIXpXf3--46" value="" style="endArrow=none;html=1;strokeColor=#3333FF;" edge="1" parent="_ctNI8eUerikAIXpXf3--40">
          <mxGeometry width="50" height="50" relative="1" as="geometry">
            <mxPoint x="20" y="100" as="sourcePoint" />
            <mxPoint x="20" y="60" as="targetPoint" />
          </mxGeometry>
        </mxCell>
        <mxCell id="_ctNI8eUerikAIXpXf3--47" value="" style="endArrow=none;html=1;strokeColor=#3333FF;" edge="1" parent="_ctNI8eUerikAIXpXf3--40">
          <mxGeometry width="50" height="50" relative="1" as="geometry">
            <mxPoint x="-20" y="60" as="sourcePoint" />
            <mxPoint x="20" y="60" as="targetPoint" />
          </mxGeometry>
        </mxCell>
        <mxCell id="_ctNI8eUerikAIXpXf3--48" value="" style="endArrow=none;html=1;strokeColor=#3333FF;" edge="1" parent="_ctNI8eUerikAIXpXf3--40">
          <mxGeometry width="50" height="50" relative="1" as="geometry">
            <mxPoint x="335" y="590" as="sourcePoint" />
            <mxPoint x="375" y="590" as="targetPoint" />
          </mxGeometry>
        </mxCell>
        <mxCell id="3IQrkMapiq6-mRBA_fu9-103" value="" style="group;rotation=90;" parent="_ctNI8eUerikAIXpXf3--40" vertex="1" connectable="0">
          <mxGeometry x="40" y="40" width="80" height="120" as="geometry" />
        </mxCell>
        <mxCell id="3IQrkMapiq6-mRBA_fu9-104" value="" style="endArrow=none;html=1;strokeColor=#FF0000;strokeWidth=3;" parent="3IQrkMapiq6-mRBA_fu9-103" edge="1">
          <mxGeometry width="50" height="50" relative="1" as="geometry">
            <mxPoint x="20" y="60" as="sourcePoint" />
            <mxPoint x="60" y="60" as="targetPoint" />
          </mxGeometry>
        </mxCell>
        <mxCell id="3IQrkMapiq6-mRBA_fu9-105" value="" style="endArrow=none;html=1;strokeColor=#3333FF;" parent="3IQrkMapiq6-mRBA_fu9-103" edge="1">
          <mxGeometry width="50" height="50" relative="1" as="geometry">
            <mxPoint x="60" y="60" as="sourcePoint" />
            <mxPoint x="100" y="60" as="targetPoint" />
          </mxGeometry>
        </mxCell>
        <mxCell id="3IQrkMapiq6-mRBA_fu9-106" value="" style="endArrow=none;html=1;strokeColor=#3333FF;" parent="3IQrkMapiq6-mRBA_fu9-103" edge="1">
          <mxGeometry width="50" height="50" relative="1" as="geometry">
            <mxPoint x="60" y="100" as="sourcePoint" />
            <mxPoint x="60" y="60" as="targetPoint" />
          </mxGeometry>
        </mxCell>
        <mxCell id="3IQrkMapiq6-mRBA_fu9-107" value="" style="endArrow=none;html=1;strokeColor=#3333FF;" parent="3IQrkMapiq6-mRBA_fu9-103" edge="1">
          <mxGeometry width="50" height="50" relative="1" as="geometry">
            <mxPoint x="60" y="60" as="sourcePoint" />
            <mxPoint x="60" y="20" as="targetPoint" />
          </mxGeometry>
        </mxCell>
        <mxCell id="3IQrkMapiq6-mRBA_fu9-108" value="" style="endArrow=none;html=1;strokeColor=#3333FF;" parent="3IQrkMapiq6-mRBA_fu9-103" edge="1">
          <mxGeometry width="50" height="50" relative="1" as="geometry">
            <mxPoint x="20" y="60" as="sourcePoint" />
            <mxPoint x="20" y="20" as="targetPoint" />
          </mxGeometry>
        </mxCell>
        <mxCell id="3IQrkMapiq6-mRBA_fu9-109" value="" style="endArrow=none;html=1;strokeColor=#3333FF;" parent="3IQrkMapiq6-mRBA_fu9-103" edge="1">
          <mxGeometry width="50" height="50" relative="1" as="geometry">
            <mxPoint x="20" y="100" as="sourcePoint" />
            <mxPoint x="20" y="60" as="targetPoint" />
          </mxGeometry>
        </mxCell>
        <mxCell id="3IQrkMapiq6-mRBA_fu9-110" value="" style="endArrow=none;html=1;strokeColor=#3333FF;" parent="3IQrkMapiq6-mRBA_fu9-103" edge="1">
          <mxGeometry width="50" height="50" relative="1" as="geometry">
            <mxPoint x="-20" y="60" as="sourcePoint" />
            <mxPoint x="20" y="60" as="targetPoint" />
          </mxGeometry>
        </mxCell>
        <mxCell id="3IQrkMapiq6-mRBA_fu9-128" value="" style="endArrow=none;html=1;strokeColor=#FF0000;" parent="1" edge="1">
          <mxGeometry x="650" y="750" width="50" height="50" as="geometry">
            <mxPoint x="690" y="830" as="sourcePoint" />
            <mxPoint x="690" y="790" as="targetPoint" />
          </mxGeometry>
        </mxCell>
        <mxCell id="3IQrkMapiq6-mRBA_fu9-129" value="" style="endArrow=none;html=1;strokeColor=#3333FF;" parent="1" edge="1">
          <mxGeometry x="650" y="750" width="50" height="50" as="geometry">
            <mxPoint x="690" y="790" as="sourcePoint" />
            <mxPoint x="690" y="750" as="targetPoint" />
          </mxGeometry>
        </mxCell>
        <mxCell id="3IQrkMapiq6-mRBA_fu9-130" value="" style="endArrow=none;html=1;strokeColor=#3333FF;" parent="1" edge="1">
          <mxGeometry x="650" y="750" width="50" height="50" as="geometry">
            <mxPoint x="730" y="790" as="sourcePoint" />
            <mxPoint x="690" y="790" as="targetPoint" />
          </mxGeometry>
        </mxCell>
        <mxCell id="3IQrkMapiq6-mRBA_fu9-131" value="" style="endArrow=none;html=1;strokeColor=#3333FF;" parent="1" edge="1">
          <mxGeometry x="650" y="750" width="50" height="50" as="geometry">
            <mxPoint x="690" y="790" as="sourcePoint" />
            <mxPoint x="650" y="790" as="targetPoint" />
          </mxGeometry>
        </mxCell>
        <mxCell id="3IQrkMapiq6-mRBA_fu9-132" value="" style="endArrow=none;html=1;strokeColor=#3333FF;" parent="1" edge="1">
          <mxGeometry x="650" y="750" width="50" height="50" as="geometry">
            <mxPoint x="690" y="830" as="sourcePoint" />
            <mxPoint x="650" y="830" as="targetPoint" />
          </mxGeometry>
        </mxCell>
        <mxCell id="3IQrkMapiq6-mRBA_fu9-133" value="" style="endArrow=none;html=1;strokeColor=#3333FF;" parent="1" edge="1">
          <mxGeometry x="650" y="750" width="50" height="50" as="geometry">
            <mxPoint x="730" y="830" as="sourcePoint" />
            <mxPoint x="690" y="830" as="targetPoint" />
          </mxGeometry>
        </mxCell>
        <mxCell id="3IQrkMapiq6-mRBA_fu9-134" value="" style="endArrow=none;html=1;strokeColor=#3333FF;" parent="1" edge="1">
          <mxGeometry x="650" y="750" width="50" height="50" as="geometry">
            <mxPoint x="690" y="870" as="sourcePoint" />
            <mxPoint x="690" y="830" as="targetPoint" />
          </mxGeometry>
        </mxCell>
        <mxCell id="3IQrkMapiq6-mRBA_fu9-119" value="" style="group" parent="1" vertex="1" connectable="0">
          <mxGeometry x="720" y="890" width="80" height="120" as="geometry" />
        </mxCell>
        <mxCell id="3IQrkMapiq6-mRBA_fu9-120" value="" style="endArrow=none;html=1;strokeColor=#FF0000;strokeWidth=3;" parent="3IQrkMapiq6-mRBA_fu9-119" edge="1">
          <mxGeometry width="50" height="50" relative="1" as="geometry">
            <mxPoint x="40" y="80" as="sourcePoint" />
            <mxPoint x="40" y="40" as="targetPoint" />
          </mxGeometry>
        </mxCell>
        <mxCell id="3IQrkMapiq6-mRBA_fu9-121" value="" style="endArrow=none;html=1;strokeColor=#3333FF;" parent="3IQrkMapiq6-mRBA_fu9-119" edge="1">
          <mxGeometry width="50" height="50" relative="1" as="geometry">
            <mxPoint x="40" y="40" as="sourcePoint" />
            <mxPoint x="40" as="targetPoint" />
          </mxGeometry>
        </mxCell>
        <mxCell id="3IQrkMapiq6-mRBA_fu9-122" value="" style="endArrow=none;html=1;strokeColor=#3333FF;" parent="3IQrkMapiq6-mRBA_fu9-119" edge="1">
          <mxGeometry width="50" height="50" relative="1" as="geometry">
            <mxPoint x="80" y="40" as="sourcePoint" />
            <mxPoint x="40" y="40" as="targetPoint" />
          </mxGeometry>
        </mxCell>
        <mxCell id="3IQrkMapiq6-mRBA_fu9-123" value="" style="endArrow=none;html=1;strokeColor=#3333FF;" parent="3IQrkMapiq6-mRBA_fu9-119" edge="1">
          <mxGeometry width="50" height="50" relative="1" as="geometry">
            <mxPoint x="40" y="40" as="sourcePoint" />
            <mxPoint y="40" as="targetPoint" />
          </mxGeometry>
        </mxCell>
        <mxCell id="3IQrkMapiq6-mRBA_fu9-124" value="" style="endArrow=none;html=1;strokeColor=#3333FF;" parent="3IQrkMapiq6-mRBA_fu9-119" edge="1">
          <mxGeometry width="50" height="50" relative="1" as="geometry">
            <mxPoint x="40" y="80" as="sourcePoint" />
            <mxPoint y="80" as="targetPoint" />
          </mxGeometry>
        </mxCell>
        <mxCell id="3IQrkMapiq6-mRBA_fu9-125" value="" style="endArrow=none;html=1;strokeColor=#3333FF;" parent="3IQrkMapiq6-mRBA_fu9-119" edge="1">
          <mxGeometry width="50" height="50" relative="1" as="geometry">
            <mxPoint x="80" y="80" as="sourcePoint" />
            <mxPoint x="40" y="80" as="targetPoint" />
          </mxGeometry>
        </mxCell>
        <mxCell id="3IQrkMapiq6-mRBA_fu9-126" value="" style="endArrow=none;html=1;strokeColor=#3333FF;" parent="3IQrkMapiq6-mRBA_fu9-119" edge="1">
          <mxGeometry width="50" height="50" relative="1" as="geometry">
            <mxPoint x="40" y="120" as="sourcePoint" />
            <mxPoint x="40" y="80" as="targetPoint" />
          </mxGeometry>
        </mxCell>
        <mxCell id="3IQrkMapiq6-mRBA_fu9-135" value="" style="group;rotation=90;" parent="1" vertex="1" connectable="0">
          <mxGeometry x="1300" y="630" width="80" height="120" as="geometry" />
        </mxCell>
        <mxCell id="3IQrkMapiq6-mRBA_fu9-136" value="" style="endArrow=none;html=1;strokeColor=#FF0000;strokeWidth=3;" parent="3IQrkMapiq6-mRBA_fu9-135" edge="1">
          <mxGeometry width="50" height="50" relative="1" as="geometry">
            <mxPoint x="20" y="60" as="sourcePoint" />
            <mxPoint x="60" y="60" as="targetPoint" />
          </mxGeometry>
        </mxCell>
        <mxCell id="3IQrkMapiq6-mRBA_fu9-137" value="" style="endArrow=none;html=1;strokeColor=#3333FF;" parent="3IQrkMapiq6-mRBA_fu9-135" edge="1">
          <mxGeometry width="50" height="50" relative="1" as="geometry">
            <mxPoint x="60" y="60" as="sourcePoint" />
            <mxPoint x="100" y="60" as="targetPoint" />
          </mxGeometry>
        </mxCell>
        <mxCell id="3IQrkMapiq6-mRBA_fu9-138" value="" style="endArrow=none;html=1;strokeColor=#3333FF;" parent="3IQrkMapiq6-mRBA_fu9-135" edge="1">
          <mxGeometry width="50" height="50" relative="1" as="geometry">
            <mxPoint x="60" y="100" as="sourcePoint" />
            <mxPoint x="60" y="60" as="targetPoint" />
          </mxGeometry>
        </mxCell>
        <mxCell id="3IQrkMapiq6-mRBA_fu9-139" value="" style="endArrow=none;html=1;strokeColor=#3333FF;" parent="3IQrkMapiq6-mRBA_fu9-135" edge="1">
          <mxGeometry width="50" height="50" relative="1" as="geometry">
            <mxPoint x="60" y="60" as="sourcePoint" />
            <mxPoint x="60" y="20" as="targetPoint" />
          </mxGeometry>
        </mxCell>
        <mxCell id="3IQrkMapiq6-mRBA_fu9-140" value="" style="endArrow=none;html=1;strokeColor=#3333FF;" parent="3IQrkMapiq6-mRBA_fu9-135" edge="1">
          <mxGeometry width="50" height="50" relative="1" as="geometry">
            <mxPoint x="20" y="60" as="sourcePoint" />
            <mxPoint x="20" y="20" as="targetPoint" />
          </mxGeometry>
        </mxCell>
        <mxCell id="3IQrkMapiq6-mRBA_fu9-141" value="" style="endArrow=none;html=1;strokeColor=#3333FF;" parent="3IQrkMapiq6-mRBA_fu9-135" edge="1">
          <mxGeometry width="50" height="50" relative="1" as="geometry">
            <mxPoint x="20" y="100" as="sourcePoint" />
            <mxPoint x="20" y="60" as="targetPoint" />
          </mxGeometry>
        </mxCell>
        <mxCell id="3IQrkMapiq6-mRBA_fu9-142" value="" style="endArrow=none;html=1;strokeColor=#3333FF;" parent="3IQrkMapiq6-mRBA_fu9-135" edge="1">
          <mxGeometry width="50" height="50" relative="1" as="geometry">
            <mxPoint x="-20" y="60" as="sourcePoint" />
            <mxPoint x="20" y="60" as="targetPoint" />
          </mxGeometry>
        </mxCell>
        <mxCell id="_ctNI8eUerikAIXpXf3--189" value="" style="endArrow=none;html=1;strokeColor=#3333FF;" edge="1" parent="3IQrkMapiq6-mRBA_fu9-135">
          <mxGeometry width="50" height="50" relative="1" as="geometry">
            <mxPoint x="1370" y="700.0000000000002" as="sourcePoint" />
            <mxPoint x="1410" y="700.0000000000002" as="targetPoint" />
          </mxGeometry>
        </mxCell>
        <mxCell id="_ctNI8eUerikAIXpXf3--190" value="" style="endArrow=none;html=1;strokeColor=#3333FF;" edge="1" parent="3IQrkMapiq6-mRBA_fu9-135">
          <mxGeometry width="50" height="50" relative="1" as="geometry">
            <mxPoint x="1290" y="700.0000000000002" as="sourcePoint" />
            <mxPoint x="1330" y="700.0000000000002" as="targetPoint" />
          </mxGeometry>
        </mxCell>
        <mxCell id="_ctNI8eUerikAIXpXf3--49" value="" style="group;rotation=90;" vertex="1" connectable="0" parent="1">
          <mxGeometry x="980" y="580" width="80" height="120" as="geometry" />
        </mxCell>
        <mxCell id="_ctNI8eUerikAIXpXf3--50" value="" style="endArrow=none;html=1;strokeColor=#FF0000;strokeWidth=3;" edge="1" parent="_ctNI8eUerikAIXpXf3--49">
          <mxGeometry width="50" height="50" relative="1" as="geometry">
            <mxPoint x="20" y="60" as="sourcePoint" />
            <mxPoint x="60" y="60" as="targetPoint" />
          </mxGeometry>
        </mxCell>
        <mxCell id="_ctNI8eUerikAIXpXf3--51" value="" style="endArrow=none;html=1;strokeColor=#3333FF;" edge="1" parent="_ctNI8eUerikAIXpXf3--49">
          <mxGeometry width="50" height="50" relative="1" as="geometry">
            <mxPoint x="60" y="60" as="sourcePoint" />
            <mxPoint x="100" y="60" as="targetPoint" />
          </mxGeometry>
        </mxCell>
        <mxCell id="_ctNI8eUerikAIXpXf3--52" value="" style="endArrow=none;html=1;strokeColor=#3333FF;" edge="1" parent="_ctNI8eUerikAIXpXf3--49">
          <mxGeometry width="50" height="50" relative="1" as="geometry">
            <mxPoint x="60" y="100" as="sourcePoint" />
            <mxPoint x="60" y="60" as="targetPoint" />
          </mxGeometry>
        </mxCell>
        <mxCell id="_ctNI8eUerikAIXpXf3--53" value="" style="endArrow=none;html=1;strokeColor=#3333FF;" edge="1" parent="_ctNI8eUerikAIXpXf3--49">
          <mxGeometry width="50" height="50" relative="1" as="geometry">
            <mxPoint x="60" y="60" as="sourcePoint" />
            <mxPoint x="60" y="20" as="targetPoint" />
          </mxGeometry>
        </mxCell>
        <mxCell id="_ctNI8eUerikAIXpXf3--54" value="" style="endArrow=none;html=1;strokeColor=#3333FF;" edge="1" parent="_ctNI8eUerikAIXpXf3--49">
          <mxGeometry width="50" height="50" relative="1" as="geometry">
            <mxPoint x="20" y="60" as="sourcePoint" />
            <mxPoint x="20" y="20" as="targetPoint" />
          </mxGeometry>
        </mxCell>
        <mxCell id="_ctNI8eUerikAIXpXf3--55" value="" style="endArrow=none;html=1;strokeColor=#3333FF;" edge="1" parent="_ctNI8eUerikAIXpXf3--49">
          <mxGeometry width="50" height="50" relative="1" as="geometry">
            <mxPoint x="20" y="100" as="sourcePoint" />
            <mxPoint x="20" y="60" as="targetPoint" />
          </mxGeometry>
        </mxCell>
        <mxCell id="_ctNI8eUerikAIXpXf3--56" value="" style="endArrow=none;html=1;strokeColor=#3333FF;" edge="1" parent="_ctNI8eUerikAIXpXf3--49">
          <mxGeometry width="50" height="50" relative="1" as="geometry">
            <mxPoint x="-20" y="60" as="sourcePoint" />
            <mxPoint x="20" y="60" as="targetPoint" />
          </mxGeometry>
        </mxCell>
        <mxCell id="_ctNI8eUerikAIXpXf3--57" value="" style="group" vertex="1" connectable="0" parent="1">
          <mxGeometry x="1040" y="600" width="80" height="120" as="geometry" />
        </mxCell>
        <mxCell id="_ctNI8eUerikAIXpXf3--58" value="" style="endArrow=none;html=1;strokeColor=#FF0000;strokeWidth=3;" edge="1" parent="_ctNI8eUerikAIXpXf3--57">
          <mxGeometry width="50" height="50" relative="1" as="geometry">
            <mxPoint x="40" y="80" as="sourcePoint" />
            <mxPoint x="40" y="40" as="targetPoint" />
          </mxGeometry>
        </mxCell>
        <mxCell id="_ctNI8eUerikAIXpXf3--59" value="" style="endArrow=none;html=1;strokeColor=#3333FF;" edge="1" parent="_ctNI8eUerikAIXpXf3--57">
          <mxGeometry width="50" height="50" relative="1" as="geometry">
            <mxPoint x="40" y="40" as="sourcePoint" />
            <mxPoint x="40" as="targetPoint" />
          </mxGeometry>
        </mxCell>
        <mxCell id="_ctNI8eUerikAIXpXf3--60" value="" style="endArrow=none;html=1;strokeColor=#3333FF;" edge="1" parent="_ctNI8eUerikAIXpXf3--57">
          <mxGeometry width="50" height="50" relative="1" as="geometry">
            <mxPoint x="80" y="40" as="sourcePoint" />
            <mxPoint x="40" y="40" as="targetPoint" />
          </mxGeometry>
        </mxCell>
        <mxCell id="_ctNI8eUerikAIXpXf3--61" value="" style="endArrow=none;html=1;strokeColor=#3333FF;" edge="1" parent="_ctNI8eUerikAIXpXf3--57">
          <mxGeometry width="50" height="50" relative="1" as="geometry">
            <mxPoint x="40" y="40" as="sourcePoint" />
            <mxPoint y="40" as="targetPoint" />
          </mxGeometry>
        </mxCell>
        <mxCell id="_ctNI8eUerikAIXpXf3--62" value="" style="endArrow=none;html=1;strokeColor=#3333FF;" edge="1" parent="_ctNI8eUerikAIXpXf3--57">
          <mxGeometry width="50" height="50" relative="1" as="geometry">
            <mxPoint x="40" y="80" as="sourcePoint" />
            <mxPoint y="80" as="targetPoint" />
          </mxGeometry>
        </mxCell>
        <mxCell id="_ctNI8eUerikAIXpXf3--63" value="" style="endArrow=none;html=1;strokeColor=#3333FF;" edge="1" parent="_ctNI8eUerikAIXpXf3--57">
          <mxGeometry width="50" height="50" relative="1" as="geometry">
            <mxPoint x="80" y="80" as="sourcePoint" />
            <mxPoint x="40" y="80" as="targetPoint" />
          </mxGeometry>
        </mxCell>
        <mxCell id="_ctNI8eUerikAIXpXf3--64" value="" style="endArrow=none;html=1;strokeColor=#3333FF;" edge="1" parent="_ctNI8eUerikAIXpXf3--57">
          <mxGeometry width="50" height="50" relative="1" as="geometry">
            <mxPoint x="40" y="120" as="sourcePoint" />
            <mxPoint x="40" y="80" as="targetPoint" />
          </mxGeometry>
        </mxCell>
        <mxCell id="_ctNI8eUerikAIXpXf3--65" value="" style="group" vertex="1" connectable="0" parent="1">
          <mxGeometry x="1040" y="760" width="80" height="120" as="geometry" />
        </mxCell>
        <mxCell id="_ctNI8eUerikAIXpXf3--66" value="" style="endArrow=none;html=1;strokeColor=#FF0000;strokeWidth=3;" edge="1" parent="_ctNI8eUerikAIXpXf3--65">
          <mxGeometry width="50" height="50" relative="1" as="geometry">
            <mxPoint x="40" y="80" as="sourcePoint" />
            <mxPoint x="40" y="40" as="targetPoint" />
          </mxGeometry>
        </mxCell>
        <mxCell id="_ctNI8eUerikAIXpXf3--67" value="" style="endArrow=none;html=1;strokeColor=#3333FF;" edge="1" parent="_ctNI8eUerikAIXpXf3--65">
          <mxGeometry width="50" height="50" relative="1" as="geometry">
            <mxPoint x="40" y="40" as="sourcePoint" />
            <mxPoint x="40" as="targetPoint" />
          </mxGeometry>
        </mxCell>
        <mxCell id="_ctNI8eUerikAIXpXf3--68" value="" style="endArrow=none;html=1;strokeColor=#3333FF;" edge="1" parent="_ctNI8eUerikAIXpXf3--65">
          <mxGeometry width="50" height="50" relative="1" as="geometry">
            <mxPoint x="80" y="40" as="sourcePoint" />
            <mxPoint x="40" y="40" as="targetPoint" />
          </mxGeometry>
        </mxCell>
        <mxCell id="_ctNI8eUerikAIXpXf3--69" value="" style="endArrow=none;html=1;strokeColor=#3333FF;" edge="1" parent="_ctNI8eUerikAIXpXf3--65">
          <mxGeometry width="50" height="50" relative="1" as="geometry">
            <mxPoint x="40" y="40" as="sourcePoint" />
            <mxPoint y="40" as="targetPoint" />
          </mxGeometry>
        </mxCell>
        <mxCell id="_ctNI8eUerikAIXpXf3--70" value="" style="endArrow=none;html=1;strokeColor=#3333FF;" edge="1" parent="_ctNI8eUerikAIXpXf3--65">
          <mxGeometry width="50" height="50" relative="1" as="geometry">
            <mxPoint x="40" y="80" as="sourcePoint" />
            <mxPoint y="80" as="targetPoint" />
          </mxGeometry>
        </mxCell>
        <mxCell id="_ctNI8eUerikAIXpXf3--71" value="" style="endArrow=none;html=1;strokeColor=#3333FF;" edge="1" parent="_ctNI8eUerikAIXpXf3--65">
          <mxGeometry width="50" height="50" relative="1" as="geometry">
            <mxPoint x="80" y="80" as="sourcePoint" />
            <mxPoint x="40" y="80" as="targetPoint" />
          </mxGeometry>
        </mxCell>
        <mxCell id="_ctNI8eUerikAIXpXf3--72" value="" style="endArrow=none;html=1;strokeColor=#3333FF;" edge="1" parent="_ctNI8eUerikAIXpXf3--65">
          <mxGeometry width="50" height="50" relative="1" as="geometry">
            <mxPoint x="40" y="120" as="sourcePoint" />
            <mxPoint x="40" y="80" as="targetPoint" />
          </mxGeometry>
        </mxCell>
        <mxCell id="_ctNI8eUerikAIXpXf3--74" value="" style="group;rotation=90;" vertex="1" connectable="0" parent="1">
          <mxGeometry x="1020" y="700" width="80" height="120" as="geometry" />
        </mxCell>
        <mxCell id="_ctNI8eUerikAIXpXf3--75" value="" style="endArrow=none;html=1;strokeColor=#FF0000;strokeWidth=3;" edge="1" parent="_ctNI8eUerikAIXpXf3--74">
          <mxGeometry width="50" height="50" relative="1" as="geometry">
            <mxPoint x="20" y="60" as="sourcePoint" />
            <mxPoint x="60" y="60" as="targetPoint" />
          </mxGeometry>
        </mxCell>
        <mxCell id="_ctNI8eUerikAIXpXf3--76" value="" style="endArrow=none;html=1;strokeColor=#3333FF;" edge="1" parent="_ctNI8eUerikAIXpXf3--74">
          <mxGeometry width="50" height="50" relative="1" as="geometry">
            <mxPoint x="60" y="60" as="sourcePoint" />
            <mxPoint x="100" y="60" as="targetPoint" />
          </mxGeometry>
        </mxCell>
        <mxCell id="_ctNI8eUerikAIXpXf3--77" value="" style="endArrow=none;html=1;strokeColor=#3333FF;strokeWidth=3;" edge="1" parent="_ctNI8eUerikAIXpXf3--74">
          <mxGeometry width="50" height="50" relative="1" as="geometry">
            <mxPoint x="60" y="100" as="sourcePoint" />
            <mxPoint x="60" y="60" as="targetPoint" />
          </mxGeometry>
        </mxCell>
        <mxCell id="_ctNI8eUerikAIXpXf3--78" value="" style="endArrow=none;html=1;strokeColor=#3333FF;" edge="1" parent="_ctNI8eUerikAIXpXf3--74">
          <mxGeometry width="50" height="50" relative="1" as="geometry">
            <mxPoint x="60" y="60" as="sourcePoint" />
            <mxPoint x="60" y="20" as="targetPoint" />
          </mxGeometry>
        </mxCell>
        <mxCell id="_ctNI8eUerikAIXpXf3--79" value="" style="endArrow=none;html=1;strokeColor=#3333FF;" edge="1" parent="_ctNI8eUerikAIXpXf3--74">
          <mxGeometry width="50" height="50" relative="1" as="geometry">
            <mxPoint x="20" y="60" as="sourcePoint" />
            <mxPoint x="20" y="20" as="targetPoint" />
          </mxGeometry>
        </mxCell>
        <mxCell id="_ctNI8eUerikAIXpXf3--80" value="" style="endArrow=none;html=1;strokeColor=#3333FF;" edge="1" parent="_ctNI8eUerikAIXpXf3--74">
          <mxGeometry width="50" height="50" relative="1" as="geometry">
            <mxPoint x="20" y="100" as="sourcePoint" />
            <mxPoint x="20" y="60" as="targetPoint" />
          </mxGeometry>
        </mxCell>
        <mxCell id="_ctNI8eUerikAIXpXf3--81" value="" style="endArrow=none;html=1;strokeColor=#3333FF;" edge="1" parent="_ctNI8eUerikAIXpXf3--74">
          <mxGeometry width="50" height="50" relative="1" as="geometry">
            <mxPoint x="-20" y="60" as="sourcePoint" />
            <mxPoint x="20" y="60" as="targetPoint" />
          </mxGeometry>
        </mxCell>
        <mxCell id="_ctNI8eUerikAIXpXf3--157" value="" style="group" vertex="1" connectable="0" parent="_ctNI8eUerikAIXpXf3--74">
          <mxGeometry x="-20" y="-60" width="80" height="120" as="geometry" />
        </mxCell>
        <mxCell id="_ctNI8eUerikAIXpXf3--158" value="" style="endArrow=none;html=1;strokeColor=#FF0000;strokeWidth=3;" edge="1" parent="_ctNI8eUerikAIXpXf3--157">
          <mxGeometry width="50" height="50" relative="1" as="geometry">
            <mxPoint x="40" y="80" as="sourcePoint" />
            <mxPoint x="40" y="40" as="targetPoint" />
          </mxGeometry>
        </mxCell>
        <mxCell id="_ctNI8eUerikAIXpXf3--159" value="" style="endArrow=none;html=1;strokeColor=#3333FF;" edge="1" parent="_ctNI8eUerikAIXpXf3--157">
          <mxGeometry width="50" height="50" relative="1" as="geometry">
            <mxPoint x="40" y="40" as="sourcePoint" />
            <mxPoint x="40" as="targetPoint" />
          </mxGeometry>
        </mxCell>
        <mxCell id="_ctNI8eUerikAIXpXf3--160" value="" style="endArrow=none;html=1;strokeColor=#3333FF;" edge="1" parent="_ctNI8eUerikAIXpXf3--157">
          <mxGeometry width="50" height="50" relative="1" as="geometry">
            <mxPoint x="80" y="40" as="sourcePoint" />
            <mxPoint x="40" y="40" as="targetPoint" />
          </mxGeometry>
        </mxCell>
        <mxCell id="_ctNI8eUerikAIXpXf3--161" value="" style="endArrow=none;html=1;strokeColor=#3333FF;" edge="1" parent="_ctNI8eUerikAIXpXf3--157">
          <mxGeometry width="50" height="50" relative="1" as="geometry">
            <mxPoint x="40" y="40" as="sourcePoint" />
            <mxPoint y="40" as="targetPoint" />
          </mxGeometry>
        </mxCell>
        <mxCell id="_ctNI8eUerikAIXpXf3--162" value="" style="endArrow=none;html=1;strokeColor=#3333FF;" edge="1" parent="_ctNI8eUerikAIXpXf3--157">
          <mxGeometry width="50" height="50" relative="1" as="geometry">
            <mxPoint x="40" y="80" as="sourcePoint" />
            <mxPoint y="80" as="targetPoint" />
          </mxGeometry>
        </mxCell>
        <mxCell id="_ctNI8eUerikAIXpXf3--163" value="" style="endArrow=none;html=1;strokeColor=#3333FF;" edge="1" parent="_ctNI8eUerikAIXpXf3--157">
          <mxGeometry width="50" height="50" relative="1" as="geometry">
            <mxPoint x="80" y="80" as="sourcePoint" />
            <mxPoint x="40" y="80" as="targetPoint" />
          </mxGeometry>
        </mxCell>
        <mxCell id="_ctNI8eUerikAIXpXf3--164" value="" style="endArrow=none;html=1;strokeColor=#3333FF;" edge="1" parent="_ctNI8eUerikAIXpXf3--157">
          <mxGeometry width="50" height="50" relative="1" as="geometry">
            <mxPoint x="40" y="120" as="sourcePoint" />
            <mxPoint x="40" y="80" as="targetPoint" />
          </mxGeometry>
        </mxCell>
        <mxCell id="_ctNI8eUerikAIXpXf3--83" value="" style="group" vertex="1" connectable="0" parent="1">
          <mxGeometry x="1150" y="830" width="80" height="120" as="geometry" />
        </mxCell>
        <mxCell id="_ctNI8eUerikAIXpXf3--84" value="" style="endArrow=none;html=1;strokeColor=#FF0000;" edge="1" parent="_ctNI8eUerikAIXpXf3--83">
          <mxGeometry width="50" height="50" relative="1" as="geometry">
            <mxPoint x="40" y="80" as="sourcePoint" />
            <mxPoint x="40" y="40" as="targetPoint" />
          </mxGeometry>
        </mxCell>
        <mxCell id="_ctNI8eUerikAIXpXf3--85" value="" style="endArrow=none;html=1;strokeColor=#3333FF;" edge="1" parent="_ctNI8eUerikAIXpXf3--83">
          <mxGeometry width="50" height="50" relative="1" as="geometry">
            <mxPoint x="40" y="40" as="sourcePoint" />
            <mxPoint x="40" as="targetPoint" />
          </mxGeometry>
        </mxCell>
        <mxCell id="_ctNI8eUerikAIXpXf3--86" value="" style="endArrow=none;html=1;strokeColor=#3333FF;" edge="1" parent="_ctNI8eUerikAIXpXf3--83">
          <mxGeometry width="50" height="50" relative="1" as="geometry">
            <mxPoint x="80" y="40" as="sourcePoint" />
            <mxPoint x="40" y="40" as="targetPoint" />
          </mxGeometry>
        </mxCell>
        <mxCell id="_ctNI8eUerikAIXpXf3--87" value="" style="endArrow=none;html=1;strokeColor=#3333FF;" edge="1" parent="_ctNI8eUerikAIXpXf3--83">
          <mxGeometry width="50" height="50" relative="1" as="geometry">
            <mxPoint x="40" y="40" as="sourcePoint" />
            <mxPoint y="40" as="targetPoint" />
          </mxGeometry>
        </mxCell>
        <mxCell id="_ctNI8eUerikAIXpXf3--88" value="" style="endArrow=none;html=1;strokeColor=#3333FF;" edge="1" parent="_ctNI8eUerikAIXpXf3--83">
          <mxGeometry width="50" height="50" relative="1" as="geometry">
            <mxPoint x="40" y="80" as="sourcePoint" />
            <mxPoint y="80" as="targetPoint" />
          </mxGeometry>
        </mxCell>
        <mxCell id="_ctNI8eUerikAIXpXf3--89" value="" style="endArrow=none;html=1;strokeColor=#3333FF;" edge="1" parent="_ctNI8eUerikAIXpXf3--83">
          <mxGeometry width="50" height="50" relative="1" as="geometry">
            <mxPoint x="80" y="80" as="sourcePoint" />
            <mxPoint x="40" y="80" as="targetPoint" />
          </mxGeometry>
        </mxCell>
        <mxCell id="_ctNI8eUerikAIXpXf3--90" value="" style="endArrow=none;html=1;strokeColor=#3333FF;" edge="1" parent="_ctNI8eUerikAIXpXf3--83">
          <mxGeometry width="50" height="50" relative="1" as="geometry">
            <mxPoint x="40" y="120" as="sourcePoint" />
            <mxPoint x="40" y="80" as="targetPoint" />
          </mxGeometry>
        </mxCell>
        <mxCell id="_ctNI8eUerikAIXpXf3--91" value="" style="group;rotation=90;" vertex="1" connectable="0" parent="1">
          <mxGeometry x="940" y="780" width="80" height="120" as="geometry" />
        </mxCell>
        <mxCell id="_ctNI8eUerikAIXpXf3--92" value="" style="endArrow=none;html=1;strokeColor=#FF0000;strokeWidth=3;" edge="1" parent="_ctNI8eUerikAIXpXf3--91">
          <mxGeometry width="50" height="50" relative="1" as="geometry">
            <mxPoint x="20" y="60" as="sourcePoint" />
            <mxPoint x="60" y="60" as="targetPoint" />
          </mxGeometry>
        </mxCell>
        <mxCell id="_ctNI8eUerikAIXpXf3--93" value="" style="endArrow=none;html=1;strokeColor=#3333FF;" edge="1" parent="_ctNI8eUerikAIXpXf3--91">
          <mxGeometry width="50" height="50" relative="1" as="geometry">
            <mxPoint x="60" y="60" as="sourcePoint" />
            <mxPoint x="100" y="60" as="targetPoint" />
          </mxGeometry>
        </mxCell>
        <mxCell id="_ctNI8eUerikAIXpXf3--94" value="" style="endArrow=none;html=1;strokeColor=#3333FF;" edge="1" parent="_ctNI8eUerikAIXpXf3--91">
          <mxGeometry width="50" height="50" relative="1" as="geometry">
            <mxPoint x="60" y="100" as="sourcePoint" />
            <mxPoint x="60" y="60" as="targetPoint" />
          </mxGeometry>
        </mxCell>
        <mxCell id="_ctNI8eUerikAIXpXf3--95" value="" style="endArrow=none;html=1;strokeColor=#3333FF;" edge="1" parent="_ctNI8eUerikAIXpXf3--91">
          <mxGeometry width="50" height="50" relative="1" as="geometry">
            <mxPoint x="60" y="60" as="sourcePoint" />
            <mxPoint x="60" y="20" as="targetPoint" />
          </mxGeometry>
        </mxCell>
        <mxCell id="_ctNI8eUerikAIXpXf3--96" value="" style="endArrow=none;html=1;strokeColor=#3333FF;" edge="1" parent="_ctNI8eUerikAIXpXf3--91">
          <mxGeometry width="50" height="50" relative="1" as="geometry">
            <mxPoint x="20" y="60" as="sourcePoint" />
            <mxPoint x="20" y="20" as="targetPoint" />
          </mxGeometry>
        </mxCell>
        <mxCell id="_ctNI8eUerikAIXpXf3--97" value="" style="endArrow=none;html=1;strokeColor=#3333FF;" edge="1" parent="_ctNI8eUerikAIXpXf3--91">
          <mxGeometry width="50" height="50" relative="1" as="geometry">
            <mxPoint x="20" y="100" as="sourcePoint" />
            <mxPoint x="20" y="60" as="targetPoint" />
          </mxGeometry>
        </mxCell>
        <mxCell id="_ctNI8eUerikAIXpXf3--98" value="" style="endArrow=none;html=1;strokeColor=#3333FF;" edge="1" parent="_ctNI8eUerikAIXpXf3--91">
          <mxGeometry width="50" height="50" relative="1" as="geometry">
            <mxPoint x="-20" y="60" as="sourcePoint" />
            <mxPoint x="20" y="60" as="targetPoint" />
          </mxGeometry>
        </mxCell>
        <mxCell id="_ctNI8eUerikAIXpXf3--99" value="" style="group" vertex="1" connectable="0" parent="1">
          <mxGeometry x="840" y="760" width="140" height="120" as="geometry" />
        </mxCell>
        <mxCell id="_ctNI8eUerikAIXpXf3--100" value="" style="endArrow=none;html=1;strokeColor=#FF0000;strokeWidth=3;" edge="1" parent="_ctNI8eUerikAIXpXf3--99">
          <mxGeometry width="50" height="50" relative="1" as="geometry">
            <mxPoint x="40" y="80" as="sourcePoint" />
            <mxPoint x="40" y="40" as="targetPoint" />
          </mxGeometry>
        </mxCell>
        <mxCell id="_ctNI8eUerikAIXpXf3--101" value="" style="endArrow=none;html=1;strokeColor=#3333FF;" edge="1" parent="_ctNI8eUerikAIXpXf3--99">
          <mxGeometry width="50" height="50" relative="1" as="geometry">
            <mxPoint x="40" y="40" as="sourcePoint" />
            <mxPoint x="40" as="targetPoint" />
          </mxGeometry>
        </mxCell>
        <mxCell id="_ctNI8eUerikAIXpXf3--102" value="" style="endArrow=none;html=1;strokeColor=#3333FF;" edge="1" parent="_ctNI8eUerikAIXpXf3--99">
          <mxGeometry width="50" height="50" relative="1" as="geometry">
            <mxPoint x="80" y="40" as="sourcePoint" />
            <mxPoint x="40" y="40" as="targetPoint" />
          </mxGeometry>
        </mxCell>
        <mxCell id="_ctNI8eUerikAIXpXf3--103" value="" style="endArrow=none;html=1;strokeColor=#3333FF;" edge="1" parent="_ctNI8eUerikAIXpXf3--99">
          <mxGeometry width="50" height="50" relative="1" as="geometry">
            <mxPoint x="40" y="40" as="sourcePoint" />
            <mxPoint y="40" as="targetPoint" />
          </mxGeometry>
        </mxCell>
        <mxCell id="_ctNI8eUerikAIXpXf3--104" value="" style="endArrow=none;html=1;strokeColor=#3333FF;" edge="1" parent="_ctNI8eUerikAIXpXf3--99">
          <mxGeometry width="50" height="50" relative="1" as="geometry">
            <mxPoint x="40" y="80" as="sourcePoint" />
            <mxPoint y="80" as="targetPoint" />
          </mxGeometry>
        </mxCell>
        <mxCell id="_ctNI8eUerikAIXpXf3--105" value="" style="endArrow=none;html=1;strokeColor=#3333FF;" edge="1" parent="_ctNI8eUerikAIXpXf3--99">
          <mxGeometry width="50" height="50" relative="1" as="geometry">
            <mxPoint x="80" y="80" as="sourcePoint" />
            <mxPoint x="40" y="80" as="targetPoint" />
          </mxGeometry>
        </mxCell>
        <mxCell id="_ctNI8eUerikAIXpXf3--106" value="" style="endArrow=none;html=1;strokeColor=#3333FF;" edge="1" parent="_ctNI8eUerikAIXpXf3--99">
          <mxGeometry width="50" height="50" relative="1" as="geometry">
            <mxPoint x="40" y="120" as="sourcePoint" />
            <mxPoint x="40" y="80" as="targetPoint" />
          </mxGeometry>
        </mxCell>
        <mxCell id="_ctNI8eUerikAIXpXf3--141" value="" style="group;rotation=90;" vertex="1" connectable="0" parent="_ctNI8eUerikAIXpXf3--99">
          <mxGeometry x="60" y="-20" width="80" height="120" as="geometry" />
        </mxCell>
        <mxCell id="_ctNI8eUerikAIXpXf3--142" value="" style="endArrow=none;html=1;strokeColor=#FF0000;strokeWidth=3;" edge="1" parent="_ctNI8eUerikAIXpXf3--141">
          <mxGeometry width="50" height="50" relative="1" as="geometry">
            <mxPoint x="20" y="60" as="sourcePoint" />
            <mxPoint x="60" y="60" as="targetPoint" />
          </mxGeometry>
        </mxCell>
        <mxCell id="_ctNI8eUerikAIXpXf3--143" value="" style="endArrow=none;html=1;strokeColor=#3333FF;" edge="1" parent="_ctNI8eUerikAIXpXf3--141">
          <mxGeometry width="50" height="50" relative="1" as="geometry">
            <mxPoint x="60" y="60" as="sourcePoint" />
            <mxPoint x="100" y="60" as="targetPoint" />
          </mxGeometry>
        </mxCell>
        <mxCell id="_ctNI8eUerikAIXpXf3--144" value="" style="endArrow=none;html=1;strokeColor=#3333FF;" edge="1" parent="_ctNI8eUerikAIXpXf3--141">
          <mxGeometry width="50" height="50" relative="1" as="geometry">
            <mxPoint x="60" y="100" as="sourcePoint" />
            <mxPoint x="60" y="60" as="targetPoint" />
          </mxGeometry>
        </mxCell>
        <mxCell id="_ctNI8eUerikAIXpXf3--145" value="" style="endArrow=none;html=1;strokeColor=#3333FF;" edge="1" parent="_ctNI8eUerikAIXpXf3--141">
          <mxGeometry width="50" height="50" relative="1" as="geometry">
            <mxPoint x="60" y="60" as="sourcePoint" />
            <mxPoint x="60" y="20" as="targetPoint" />
          </mxGeometry>
        </mxCell>
        <mxCell id="_ctNI8eUerikAIXpXf3--146" value="" style="endArrow=none;html=1;strokeColor=#3333FF;" edge="1" parent="_ctNI8eUerikAIXpXf3--141">
          <mxGeometry width="50" height="50" relative="1" as="geometry">
            <mxPoint x="20" y="60" as="sourcePoint" />
            <mxPoint x="20" y="20" as="targetPoint" />
          </mxGeometry>
        </mxCell>
        <mxCell id="_ctNI8eUerikAIXpXf3--147" value="" style="endArrow=none;html=1;strokeColor=#3333FF;" edge="1" parent="_ctNI8eUerikAIXpXf3--141">
          <mxGeometry width="50" height="50" relative="1" as="geometry">
            <mxPoint x="20" y="100" as="sourcePoint" />
            <mxPoint x="20" y="60" as="targetPoint" />
          </mxGeometry>
        </mxCell>
        <mxCell id="_ctNI8eUerikAIXpXf3--148" value="" style="endArrow=none;html=1;strokeColor=#3333FF;" edge="1" parent="_ctNI8eUerikAIXpXf3--141">
          <mxGeometry width="50" height="50" relative="1" as="geometry">
            <mxPoint x="-20" y="60" as="sourcePoint" />
            <mxPoint x="20" y="60" as="targetPoint" />
          </mxGeometry>
        </mxCell>
        <mxCell id="_ctNI8eUerikAIXpXf3--107" value="" style="group" vertex="1" connectable="0" parent="1">
          <mxGeometry x="840" y="640" width="100" height="120" as="geometry" />
        </mxCell>
        <mxCell id="_ctNI8eUerikAIXpXf3--108" value="" style="endArrow=none;html=1;strokeColor=#FF0000;strokeWidth=3;" edge="1" parent="_ctNI8eUerikAIXpXf3--107">
          <mxGeometry width="50" height="50" relative="1" as="geometry">
            <mxPoint x="40" y="80" as="sourcePoint" />
            <mxPoint x="40" y="40" as="targetPoint" />
          </mxGeometry>
        </mxCell>
        <mxCell id="_ctNI8eUerikAIXpXf3--109" value="" style="endArrow=none;html=1;strokeColor=#3333FF;" edge="1" parent="_ctNI8eUerikAIXpXf3--107">
          <mxGeometry width="50" height="50" relative="1" as="geometry">
            <mxPoint x="40" y="40" as="sourcePoint" />
            <mxPoint x="40" as="targetPoint" />
          </mxGeometry>
        </mxCell>
        <mxCell id="_ctNI8eUerikAIXpXf3--110" value="" style="endArrow=none;html=1;strokeColor=#3333FF;" edge="1" parent="_ctNI8eUerikAIXpXf3--107">
          <mxGeometry width="50" height="50" relative="1" as="geometry">
            <mxPoint x="80" y="40" as="sourcePoint" />
            <mxPoint x="40" y="40" as="targetPoint" />
          </mxGeometry>
        </mxCell>
        <mxCell id="_ctNI8eUerikAIXpXf3--111" value="" style="endArrow=none;html=1;strokeColor=#3333FF;" edge="1" parent="_ctNI8eUerikAIXpXf3--107">
          <mxGeometry width="50" height="50" relative="1" as="geometry">
            <mxPoint x="40" y="40" as="sourcePoint" />
            <mxPoint y="40" as="targetPoint" />
          </mxGeometry>
        </mxCell>
        <mxCell id="_ctNI8eUerikAIXpXf3--112" value="" style="endArrow=none;html=1;strokeColor=#3333FF;" edge="1" parent="_ctNI8eUerikAIXpXf3--107">
          <mxGeometry width="50" height="50" relative="1" as="geometry">
            <mxPoint x="40" y="80" as="sourcePoint" />
            <mxPoint y="80" as="targetPoint" />
          </mxGeometry>
        </mxCell>
        <mxCell id="_ctNI8eUerikAIXpXf3--113" value="" style="endArrow=none;html=1;strokeColor=#3333FF;" edge="1" parent="_ctNI8eUerikAIXpXf3--107">
          <mxGeometry width="50" height="50" relative="1" as="geometry">
            <mxPoint x="80" y="80" as="sourcePoint" />
            <mxPoint x="40" y="80" as="targetPoint" />
          </mxGeometry>
        </mxCell>
        <mxCell id="_ctNI8eUerikAIXpXf3--114" value="" style="endArrow=none;html=1;strokeColor=#3333FF;" edge="1" parent="_ctNI8eUerikAIXpXf3--107">
          <mxGeometry width="50" height="50" relative="1" as="geometry">
            <mxPoint x="40" y="120" as="sourcePoint" />
            <mxPoint x="40" y="80" as="targetPoint" />
          </mxGeometry>
        </mxCell>
        <mxCell id="_ctNI8eUerikAIXpXf3--116" value="" style="group;rotation=90;" vertex="1" connectable="0" parent="_ctNI8eUerikAIXpXf3--107">
          <mxGeometry x="20" y="-60" width="80" height="120" as="geometry" />
        </mxCell>
        <mxCell id="_ctNI8eUerikAIXpXf3--117" value="" style="endArrow=none;html=1;strokeColor=#FF0000;strokeWidth=3;" edge="1" parent="_ctNI8eUerikAIXpXf3--116">
          <mxGeometry width="50" height="50" relative="1" as="geometry">
            <mxPoint x="20" y="60" as="sourcePoint" />
            <mxPoint x="60" y="60" as="targetPoint" />
          </mxGeometry>
        </mxCell>
        <mxCell id="_ctNI8eUerikAIXpXf3--118" value="" style="endArrow=none;html=1;strokeColor=#3333FF;" edge="1" parent="_ctNI8eUerikAIXpXf3--116">
          <mxGeometry width="50" height="50" relative="1" as="geometry">
            <mxPoint x="60" y="60" as="sourcePoint" />
            <mxPoint x="100" y="60" as="targetPoint" />
          </mxGeometry>
        </mxCell>
        <mxCell id="_ctNI8eUerikAIXpXf3--119" value="" style="endArrow=none;html=1;strokeColor=#3333FF;" edge="1" parent="_ctNI8eUerikAIXpXf3--116">
          <mxGeometry width="50" height="50" relative="1" as="geometry">
            <mxPoint x="60" y="100" as="sourcePoint" />
            <mxPoint x="60" y="60" as="targetPoint" />
          </mxGeometry>
        </mxCell>
        <mxCell id="_ctNI8eUerikAIXpXf3--120" value="" style="endArrow=none;html=1;strokeColor=#3333FF;" edge="1" parent="_ctNI8eUerikAIXpXf3--116">
          <mxGeometry width="50" height="50" relative="1" as="geometry">
            <mxPoint x="60" y="60" as="sourcePoint" />
            <mxPoint x="60" y="20" as="targetPoint" />
          </mxGeometry>
        </mxCell>
        <mxCell id="_ctNI8eUerikAIXpXf3--121" value="" style="endArrow=none;html=1;strokeColor=#3333FF;" edge="1" parent="_ctNI8eUerikAIXpXf3--116">
          <mxGeometry width="50" height="50" relative="1" as="geometry">
            <mxPoint x="20" y="60" as="sourcePoint" />
            <mxPoint x="20" y="20" as="targetPoint" />
          </mxGeometry>
        </mxCell>
        <mxCell id="_ctNI8eUerikAIXpXf3--122" value="" style="endArrow=none;html=1;strokeColor=#3333FF;" edge="1" parent="_ctNI8eUerikAIXpXf3--116">
          <mxGeometry width="50" height="50" relative="1" as="geometry">
            <mxPoint x="20" y="100" as="sourcePoint" />
            <mxPoint x="20" y="60" as="targetPoint" />
          </mxGeometry>
        </mxCell>
        <mxCell id="_ctNI8eUerikAIXpXf3--123" value="" style="endArrow=none;html=1;strokeColor=#3333FF;" edge="1" parent="_ctNI8eUerikAIXpXf3--116">
          <mxGeometry width="50" height="50" relative="1" as="geometry">
            <mxPoint x="-20" y="60" as="sourcePoint" />
            <mxPoint x="20" y="60" as="targetPoint" />
          </mxGeometry>
        </mxCell>
        <mxCell id="_ctNI8eUerikAIXpXf3--124" value="" style="group" vertex="1" connectable="0" parent="1">
          <mxGeometry x="920" y="640" width="80" height="160" as="geometry" />
        </mxCell>
        <mxCell id="_ctNI8eUerikAIXpXf3--125" value="" style="endArrow=none;html=1;strokeColor=#FF0000;strokeWidth=3;" edge="1" parent="_ctNI8eUerikAIXpXf3--124">
          <mxGeometry width="50" height="50" relative="1" as="geometry">
            <mxPoint x="40" y="80" as="sourcePoint" />
            <mxPoint x="40" y="40" as="targetPoint" />
          </mxGeometry>
        </mxCell>
        <mxCell id="_ctNI8eUerikAIXpXf3--126" value="" style="endArrow=none;html=1;strokeColor=#3333FF;" edge="1" parent="_ctNI8eUerikAIXpXf3--124">
          <mxGeometry width="50" height="50" relative="1" as="geometry">
            <mxPoint x="40" y="40" as="sourcePoint" />
            <mxPoint x="40" as="targetPoint" />
          </mxGeometry>
        </mxCell>
        <mxCell id="_ctNI8eUerikAIXpXf3--127" value="" style="endArrow=none;html=1;strokeColor=#3333FF;" edge="1" parent="_ctNI8eUerikAIXpXf3--124">
          <mxGeometry width="50" height="50" relative="1" as="geometry">
            <mxPoint x="80" y="40" as="sourcePoint" />
            <mxPoint x="40" y="40" as="targetPoint" />
          </mxGeometry>
        </mxCell>
        <mxCell id="_ctNI8eUerikAIXpXf3--128" value="" style="endArrow=none;html=1;strokeColor=#3333FF;" edge="1" parent="_ctNI8eUerikAIXpXf3--124">
          <mxGeometry width="50" height="50" relative="1" as="geometry">
            <mxPoint x="40" y="40" as="sourcePoint" />
            <mxPoint y="40" as="targetPoint" />
          </mxGeometry>
        </mxCell>
        <mxCell id="_ctNI8eUerikAIXpXf3--129" value="" style="endArrow=none;html=1;strokeColor=#3333FF;" edge="1" parent="_ctNI8eUerikAIXpXf3--124">
          <mxGeometry width="50" height="50" relative="1" as="geometry">
            <mxPoint x="40" y="80" as="sourcePoint" />
            <mxPoint y="80" as="targetPoint" />
          </mxGeometry>
        </mxCell>
        <mxCell id="_ctNI8eUerikAIXpXf3--130" value="" style="endArrow=none;html=1;strokeColor=#3333FF;" edge="1" parent="_ctNI8eUerikAIXpXf3--124">
          <mxGeometry width="50" height="50" relative="1" as="geometry">
            <mxPoint x="80" y="80" as="sourcePoint" />
            <mxPoint x="40" y="80" as="targetPoint" />
          </mxGeometry>
        </mxCell>
        <mxCell id="_ctNI8eUerikAIXpXf3--131" value="" style="endArrow=none;html=1;strokeColor=#3333FF;" edge="1" parent="_ctNI8eUerikAIXpXf3--124">
          <mxGeometry width="50" height="50" relative="1" as="geometry">
            <mxPoint x="40" y="120" as="sourcePoint" />
            <mxPoint x="40" y="80" as="targetPoint" />
          </mxGeometry>
        </mxCell>
        <mxCell id="_ctNI8eUerikAIXpXf3--133" value="" style="group" vertex="1" connectable="0" parent="_ctNI8eUerikAIXpXf3--124">
          <mxGeometry x="-40" y="40" width="80" height="120" as="geometry" />
        </mxCell>
        <mxCell id="_ctNI8eUerikAIXpXf3--134" value="" style="endArrow=none;html=1;strokeColor=#FF0000;strokeWidth=3;" edge="1" parent="_ctNI8eUerikAIXpXf3--133">
          <mxGeometry width="50" height="50" relative="1" as="geometry">
            <mxPoint x="40" y="80" as="sourcePoint" />
            <mxPoint x="40" y="40" as="targetPoint" />
          </mxGeometry>
        </mxCell>
        <mxCell id="_ctNI8eUerikAIXpXf3--135" value="" style="endArrow=none;html=1;strokeColor=#3333FF;" edge="1" parent="_ctNI8eUerikAIXpXf3--133">
          <mxGeometry width="50" height="50" relative="1" as="geometry">
            <mxPoint x="40" y="40" as="sourcePoint" />
            <mxPoint x="40" as="targetPoint" />
          </mxGeometry>
        </mxCell>
        <mxCell id="_ctNI8eUerikAIXpXf3--136" value="" style="endArrow=none;html=1;strokeColor=#3333FF;" edge="1" parent="_ctNI8eUerikAIXpXf3--133">
          <mxGeometry width="50" height="50" relative="1" as="geometry">
            <mxPoint x="80" y="40" as="sourcePoint" />
            <mxPoint x="40" y="40" as="targetPoint" />
          </mxGeometry>
        </mxCell>
        <mxCell id="_ctNI8eUerikAIXpXf3--137" value="" style="endArrow=none;html=1;strokeColor=#3333FF;" edge="1" parent="_ctNI8eUerikAIXpXf3--133">
          <mxGeometry width="50" height="50" relative="1" as="geometry">
            <mxPoint x="40" y="40" as="sourcePoint" />
            <mxPoint y="40" as="targetPoint" />
          </mxGeometry>
        </mxCell>
        <mxCell id="_ctNI8eUerikAIXpXf3--138" value="" style="endArrow=none;html=1;strokeColor=#3333FF;" edge="1" parent="_ctNI8eUerikAIXpXf3--133">
          <mxGeometry width="50" height="50" relative="1" as="geometry">
            <mxPoint x="40" y="80" as="sourcePoint" />
            <mxPoint y="80" as="targetPoint" />
          </mxGeometry>
        </mxCell>
        <mxCell id="_ctNI8eUerikAIXpXf3--139" value="" style="endArrow=none;html=1;strokeColor=#3333FF;" edge="1" parent="_ctNI8eUerikAIXpXf3--133">
          <mxGeometry width="50" height="50" relative="1" as="geometry">
            <mxPoint x="80" y="80" as="sourcePoint" />
            <mxPoint x="40" y="80" as="targetPoint" />
          </mxGeometry>
        </mxCell>
        <mxCell id="_ctNI8eUerikAIXpXf3--140" value="" style="endArrow=none;html=1;strokeColor=#3333FF;" edge="1" parent="_ctNI8eUerikAIXpXf3--133">
          <mxGeometry width="50" height="50" relative="1" as="geometry">
            <mxPoint x="40" y="120" as="sourcePoint" />
            <mxPoint x="40" y="80" as="targetPoint" />
          </mxGeometry>
        </mxCell>
        <mxCell id="_ctNI8eUerikAIXpXf3--149" value="" style="group" vertex="1" connectable="0" parent="1">
          <mxGeometry x="1400" y="840" width="80" height="120" as="geometry" />
        </mxCell>
        <mxCell id="_ctNI8eUerikAIXpXf3--150" value="" style="endArrow=none;html=1;strokeColor=#FF0000;strokeWidth=3;" edge="1" parent="_ctNI8eUerikAIXpXf3--149">
          <mxGeometry width="50" height="50" relative="1" as="geometry">
            <mxPoint x="40" y="80" as="sourcePoint" />
            <mxPoint x="40" y="40" as="targetPoint" />
          </mxGeometry>
        </mxCell>
        <mxCell id="_ctNI8eUerikAIXpXf3--151" value="" style="endArrow=none;html=1;strokeColor=#3333FF;" edge="1" parent="_ctNI8eUerikAIXpXf3--149">
          <mxGeometry width="50" height="50" relative="1" as="geometry">
            <mxPoint x="40" y="40" as="sourcePoint" />
            <mxPoint x="40" as="targetPoint" />
          </mxGeometry>
        </mxCell>
        <mxCell id="_ctNI8eUerikAIXpXf3--152" value="" style="endArrow=none;html=1;strokeColor=#3333FF;" edge="1" parent="_ctNI8eUerikAIXpXf3--149">
          <mxGeometry width="50" height="50" relative="1" as="geometry">
            <mxPoint x="80" y="40" as="sourcePoint" />
            <mxPoint x="40" y="40" as="targetPoint" />
          </mxGeometry>
        </mxCell>
        <mxCell id="_ctNI8eUerikAIXpXf3--153" value="" style="endArrow=none;html=1;strokeColor=#3333FF;" edge="1" parent="_ctNI8eUerikAIXpXf3--149">
          <mxGeometry width="50" height="50" relative="1" as="geometry">
            <mxPoint x="40" y="40" as="sourcePoint" />
            <mxPoint y="40" as="targetPoint" />
          </mxGeometry>
        </mxCell>
        <mxCell id="_ctNI8eUerikAIXpXf3--154" value="" style="endArrow=none;html=1;strokeColor=#3333FF;" edge="1" parent="_ctNI8eUerikAIXpXf3--149">
          <mxGeometry width="50" height="50" relative="1" as="geometry">
            <mxPoint x="40" y="80" as="sourcePoint" />
            <mxPoint y="80" as="targetPoint" />
          </mxGeometry>
        </mxCell>
        <mxCell id="_ctNI8eUerikAIXpXf3--155" value="" style="endArrow=none;html=1;strokeColor=#3333FF;" edge="1" parent="_ctNI8eUerikAIXpXf3--149">
          <mxGeometry width="50" height="50" relative="1" as="geometry">
            <mxPoint x="80" y="80" as="sourcePoint" />
            <mxPoint x="40" y="80" as="targetPoint" />
          </mxGeometry>
        </mxCell>
        <mxCell id="_ctNI8eUerikAIXpXf3--156" value="" style="endArrow=none;html=1;strokeColor=#3333FF;" edge="1" parent="_ctNI8eUerikAIXpXf3--149">
          <mxGeometry width="50" height="50" relative="1" as="geometry">
            <mxPoint x="40" y="120" as="sourcePoint" />
            <mxPoint x="40" y="80" as="targetPoint" />
          </mxGeometry>
        </mxCell>
        <mxCell id="_ctNI8eUerikAIXpXf3--165" value="" style="group;rotation=90;" vertex="1" connectable="0" parent="1">
          <mxGeometry x="1390" y="530" width="80" height="120" as="geometry" />
        </mxCell>
        <mxCell id="_ctNI8eUerikAIXpXf3--166" value="" style="endArrow=none;html=1;strokeColor=#FF0000;strokeWidth=3;" edge="1" parent="_ctNI8eUerikAIXpXf3--165">
          <mxGeometry width="50" height="50" relative="1" as="geometry">
            <mxPoint x="20" y="60" as="sourcePoint" />
            <mxPoint x="60" y="60" as="targetPoint" />
          </mxGeometry>
        </mxCell>
        <mxCell id="_ctNI8eUerikAIXpXf3--167" value="" style="endArrow=none;html=1;strokeColor=#3333FF;" edge="1" parent="_ctNI8eUerikAIXpXf3--165">
          <mxGeometry width="50" height="50" relative="1" as="geometry">
            <mxPoint x="60" y="60" as="sourcePoint" />
            <mxPoint x="100" y="60" as="targetPoint" />
          </mxGeometry>
        </mxCell>
        <mxCell id="_ctNI8eUerikAIXpXf3--168" value="" style="endArrow=none;html=1;strokeColor=#3333FF;" edge="1" parent="_ctNI8eUerikAIXpXf3--165">
          <mxGeometry width="50" height="50" relative="1" as="geometry">
            <mxPoint x="60" y="100" as="sourcePoint" />
            <mxPoint x="60" y="60" as="targetPoint" />
          </mxGeometry>
        </mxCell>
        <mxCell id="_ctNI8eUerikAIXpXf3--169" value="" style="endArrow=none;html=1;strokeColor=#3333FF;" edge="1" parent="_ctNI8eUerikAIXpXf3--165">
          <mxGeometry width="50" height="50" relative="1" as="geometry">
            <mxPoint x="60" y="60" as="sourcePoint" />
            <mxPoint x="60" y="20" as="targetPoint" />
          </mxGeometry>
        </mxCell>
        <mxCell id="_ctNI8eUerikAIXpXf3--170" value="" style="endArrow=none;html=1;strokeColor=#3333FF;" edge="1" parent="_ctNI8eUerikAIXpXf3--165">
          <mxGeometry width="50" height="50" relative="1" as="geometry">
            <mxPoint x="20" y="60" as="sourcePoint" />
            <mxPoint x="20" y="20" as="targetPoint" />
          </mxGeometry>
        </mxCell>
        <mxCell id="_ctNI8eUerikAIXpXf3--171" value="" style="endArrow=none;html=1;strokeColor=#3333FF;" edge="1" parent="_ctNI8eUerikAIXpXf3--165">
          <mxGeometry width="50" height="50" relative="1" as="geometry">
            <mxPoint x="20" y="100" as="sourcePoint" />
            <mxPoint x="20" y="60" as="targetPoint" />
          </mxGeometry>
        </mxCell>
        <mxCell id="_ctNI8eUerikAIXpXf3--172" value="" style="endArrow=none;html=1;strokeColor=#3333FF;" edge="1" parent="_ctNI8eUerikAIXpXf3--165">
          <mxGeometry width="50" height="50" relative="1" as="geometry">
            <mxPoint x="-20" y="60" as="sourcePoint" />
            <mxPoint x="20" y="60" as="targetPoint" />
          </mxGeometry>
        </mxCell>
        <mxCell id="_ctNI8eUerikAIXpXf3--173" value="" style="group" vertex="1" connectable="0" parent="1">
          <mxGeometry x="1520" y="500" width="80" height="120" as="geometry" />
        </mxCell>
        <mxCell id="_ctNI8eUerikAIXpXf3--174" value="" style="endArrow=none;html=1;strokeColor=#FF0000;strokeWidth=3;" edge="1" parent="_ctNI8eUerikAIXpXf3--173">
          <mxGeometry width="50" height="50" relative="1" as="geometry">
            <mxPoint x="40" y="80" as="sourcePoint" />
            <mxPoint x="40" y="40" as="targetPoint" />
          </mxGeometry>
        </mxCell>
        <mxCell id="_ctNI8eUerikAIXpXf3--175" value="" style="endArrow=none;html=1;strokeColor=#3333FF;" edge="1" parent="_ctNI8eUerikAIXpXf3--173">
          <mxGeometry width="50" height="50" relative="1" as="geometry">
            <mxPoint x="40" y="40" as="sourcePoint" />
            <mxPoint x="40" as="targetPoint" />
          </mxGeometry>
        </mxCell>
        <mxCell id="_ctNI8eUerikAIXpXf3--176" value="" style="endArrow=none;html=1;strokeColor=#3333FF;" edge="1" parent="_ctNI8eUerikAIXpXf3--173">
          <mxGeometry width="50" height="50" relative="1" as="geometry">
            <mxPoint x="80" y="40" as="sourcePoint" />
            <mxPoint x="40" y="40" as="targetPoint" />
          </mxGeometry>
        </mxCell>
        <mxCell id="_ctNI8eUerikAIXpXf3--177" value="" style="endArrow=none;html=1;strokeColor=#3333FF;" edge="1" parent="_ctNI8eUerikAIXpXf3--173">
          <mxGeometry width="50" height="50" relative="1" as="geometry">
            <mxPoint x="40" y="40" as="sourcePoint" />
            <mxPoint y="40" as="targetPoint" />
          </mxGeometry>
        </mxCell>
        <mxCell id="_ctNI8eUerikAIXpXf3--178" value="" style="endArrow=none;html=1;strokeColor=#3333FF;" edge="1" parent="_ctNI8eUerikAIXpXf3--173">
          <mxGeometry width="50" height="50" relative="1" as="geometry">
            <mxPoint x="40" y="80" as="sourcePoint" />
            <mxPoint y="80" as="targetPoint" />
          </mxGeometry>
        </mxCell>
        <mxCell id="_ctNI8eUerikAIXpXf3--179" value="" style="endArrow=none;html=1;strokeColor=#3333FF;" edge="1" parent="_ctNI8eUerikAIXpXf3--173">
          <mxGeometry width="50" height="50" relative="1" as="geometry">
            <mxPoint x="80" y="80" as="sourcePoint" />
            <mxPoint x="40" y="80" as="targetPoint" />
          </mxGeometry>
        </mxCell>
        <mxCell id="_ctNI8eUerikAIXpXf3--180" value="" style="endArrow=none;html=1;strokeColor=#3333FF;" edge="1" parent="_ctNI8eUerikAIXpXf3--173">
          <mxGeometry width="50" height="50" relative="1" as="geometry">
            <mxPoint x="40" y="120" as="sourcePoint" />
            <mxPoint x="40" y="80" as="targetPoint" />
          </mxGeometry>
        </mxCell>
        <mxCell id="_ctNI8eUerikAIXpXf3--181" value="" style="group" vertex="1" connectable="0" parent="1">
          <mxGeometry x="1360" y="760" width="80" height="120" as="geometry" />
        </mxCell>
        <mxCell id="_ctNI8eUerikAIXpXf3--182" value="" style="endArrow=none;html=1;strokeColor=#FF0000;strokeWidth=3;" edge="1" parent="_ctNI8eUerikAIXpXf3--181">
          <mxGeometry width="50" height="50" relative="1" as="geometry">
            <mxPoint x="40" y="80" as="sourcePoint" />
            <mxPoint x="40" y="40" as="targetPoint" />
          </mxGeometry>
        </mxCell>
        <mxCell id="_ctNI8eUerikAIXpXf3--183" value="" style="endArrow=none;html=1;strokeColor=#3333FF;" edge="1" parent="_ctNI8eUerikAIXpXf3--181">
          <mxGeometry width="50" height="50" relative="1" as="geometry">
            <mxPoint x="40" y="40" as="sourcePoint" />
            <mxPoint x="40" as="targetPoint" />
          </mxGeometry>
        </mxCell>
        <mxCell id="_ctNI8eUerikAIXpXf3--184" value="" style="endArrow=none;html=1;strokeColor=#3333FF;" edge="1" parent="_ctNI8eUerikAIXpXf3--181">
          <mxGeometry width="50" height="50" relative="1" as="geometry">
            <mxPoint x="80" y="40" as="sourcePoint" />
            <mxPoint x="40" y="40" as="targetPoint" />
          </mxGeometry>
        </mxCell>
        <mxCell id="_ctNI8eUerikAIXpXf3--185" value="" style="endArrow=none;html=1;strokeColor=#3333FF;" edge="1" parent="_ctNI8eUerikAIXpXf3--181">
          <mxGeometry width="50" height="50" relative="1" as="geometry">
            <mxPoint x="40" y="40" as="sourcePoint" />
            <mxPoint y="40" as="targetPoint" />
          </mxGeometry>
        </mxCell>
        <mxCell id="_ctNI8eUerikAIXpXf3--186" value="" style="endArrow=none;html=1;strokeColor=#3333FF;" edge="1" parent="_ctNI8eUerikAIXpXf3--181">
          <mxGeometry width="50" height="50" relative="1" as="geometry">
            <mxPoint x="40" y="80" as="sourcePoint" />
            <mxPoint y="80" as="targetPoint" />
          </mxGeometry>
        </mxCell>
        <mxCell id="_ctNI8eUerikAIXpXf3--187" value="" style="endArrow=none;html=1;strokeColor=#3333FF;" edge="1" parent="_ctNI8eUerikAIXpXf3--181">
          <mxGeometry width="50" height="50" relative="1" as="geometry">
            <mxPoint x="80" y="80" as="sourcePoint" />
            <mxPoint x="40" y="80" as="targetPoint" />
          </mxGeometry>
        </mxCell>
        <mxCell id="_ctNI8eUerikAIXpXf3--188" value="" style="endArrow=none;html=1;strokeColor=#3333FF;" edge="1" parent="_ctNI8eUerikAIXpXf3--181">
          <mxGeometry width="50" height="50" relative="1" as="geometry">
            <mxPoint x="40" y="120" as="sourcePoint" />
            <mxPoint x="40" y="80" as="targetPoint" />
          </mxGeometry>
        </mxCell>
        <mxCell id="_ctNI8eUerikAIXpXf3--191" value="" style="group;rotation=90;" vertex="1" connectable="0" parent="1">
          <mxGeometry x="1460" y="780" width="80" height="120" as="geometry" />
        </mxCell>
        <mxCell id="_ctNI8eUerikAIXpXf3--192" value="" style="endArrow=none;html=1;strokeColor=#FF0000;strokeWidth=3;" edge="1" parent="_ctNI8eUerikAIXpXf3--191">
          <mxGeometry width="50" height="50" relative="1" as="geometry">
            <mxPoint x="20" y="60" as="sourcePoint" />
            <mxPoint x="60" y="60" as="targetPoint" />
          </mxGeometry>
        </mxCell>
        <mxCell id="_ctNI8eUerikAIXpXf3--193" value="" style="endArrow=none;html=1;strokeColor=#3333FF;" edge="1" parent="_ctNI8eUerikAIXpXf3--191">
          <mxGeometry width="50" height="50" relative="1" as="geometry">
            <mxPoint x="60" y="60" as="sourcePoint" />
            <mxPoint x="100" y="60" as="targetPoint" />
          </mxGeometry>
        </mxCell>
        <mxCell id="_ctNI8eUerikAIXpXf3--194" value="" style="endArrow=none;html=1;strokeColor=#3333FF;" edge="1" parent="_ctNI8eUerikAIXpXf3--191">
          <mxGeometry width="50" height="50" relative="1" as="geometry">
            <mxPoint x="60" y="100" as="sourcePoint" />
            <mxPoint x="60" y="60" as="targetPoint" />
          </mxGeometry>
        </mxCell>
        <mxCell id="_ctNI8eUerikAIXpXf3--195" value="" style="endArrow=none;html=1;strokeColor=#3333FF;" edge="1" parent="_ctNI8eUerikAIXpXf3--191">
          <mxGeometry width="50" height="50" relative="1" as="geometry">
            <mxPoint x="60" y="60" as="sourcePoint" />
            <mxPoint x="60" y="20" as="targetPoint" />
          </mxGeometry>
        </mxCell>
        <mxCell id="_ctNI8eUerikAIXpXf3--196" value="" style="endArrow=none;html=1;strokeColor=#3333FF;" edge="1" parent="_ctNI8eUerikAIXpXf3--191">
          <mxGeometry width="50" height="50" relative="1" as="geometry">
            <mxPoint x="20" y="60" as="sourcePoint" />
            <mxPoint x="20" y="20" as="targetPoint" />
          </mxGeometry>
        </mxCell>
        <mxCell id="_ctNI8eUerikAIXpXf3--197" value="" style="endArrow=none;html=1;strokeColor=#3333FF;" edge="1" parent="_ctNI8eUerikAIXpXf3--191">
          <mxGeometry width="50" height="50" relative="1" as="geometry">
            <mxPoint x="20" y="100" as="sourcePoint" />
            <mxPoint x="20" y="60" as="targetPoint" />
          </mxGeometry>
        </mxCell>
        <mxCell id="_ctNI8eUerikAIXpXf3--198" value="" style="endArrow=none;html=1;strokeColor=#3333FF;" edge="1" parent="_ctNI8eUerikAIXpXf3--191">
          <mxGeometry width="50" height="50" relative="1" as="geometry">
            <mxPoint x="-20" y="60" as="sourcePoint" />
            <mxPoint x="20" y="60" as="targetPoint" />
          </mxGeometry>
        </mxCell>
        <mxCell id="_ctNI8eUerikAIXpXf3--199" value="" style="group" vertex="1" connectable="0" parent="1">
          <mxGeometry x="1360" y="880" width="80" height="120" as="geometry" />
        </mxCell>
        <mxCell id="_ctNI8eUerikAIXpXf3--200" value="" style="endArrow=none;html=1;strokeColor=#FF0000;strokeWidth=3;" edge="1" parent="_ctNI8eUerikAIXpXf3--199">
          <mxGeometry width="50" height="50" relative="1" as="geometry">
            <mxPoint x="40" y="80" as="sourcePoint" />
            <mxPoint x="40" y="40" as="targetPoint" />
          </mxGeometry>
        </mxCell>
        <mxCell id="_ctNI8eUerikAIXpXf3--201" value="" style="endArrow=none;html=1;strokeColor=#3333FF;" edge="1" parent="_ctNI8eUerikAIXpXf3--199">
          <mxGeometry width="50" height="50" relative="1" as="geometry">
            <mxPoint x="40" y="40" as="sourcePoint" />
            <mxPoint x="40" as="targetPoint" />
          </mxGeometry>
        </mxCell>
        <mxCell id="_ctNI8eUerikAIXpXf3--202" value="" style="endArrow=none;html=1;strokeColor=#3333FF;" edge="1" parent="_ctNI8eUerikAIXpXf3--199">
          <mxGeometry width="50" height="50" relative="1" as="geometry">
            <mxPoint x="80" y="40" as="sourcePoint" />
            <mxPoint x="40" y="40" as="targetPoint" />
          </mxGeometry>
        </mxCell>
        <mxCell id="_ctNI8eUerikAIXpXf3--203" value="" style="endArrow=none;html=1;strokeColor=#3333FF;" edge="1" parent="_ctNI8eUerikAIXpXf3--199">
          <mxGeometry width="50" height="50" relative="1" as="geometry">
            <mxPoint x="40" y="40" as="sourcePoint" />
            <mxPoint y="40" as="targetPoint" />
          </mxGeometry>
        </mxCell>
        <mxCell id="_ctNI8eUerikAIXpXf3--204" value="" style="endArrow=none;html=1;strokeColor=#3333FF;" edge="1" parent="_ctNI8eUerikAIXpXf3--199">
          <mxGeometry width="50" height="50" relative="1" as="geometry">
            <mxPoint x="40" y="80" as="sourcePoint" />
            <mxPoint y="80" as="targetPoint" />
          </mxGeometry>
        </mxCell>
        <mxCell id="_ctNI8eUerikAIXpXf3--205" value="" style="endArrow=none;html=1;strokeColor=#3333FF;" edge="1" parent="_ctNI8eUerikAIXpXf3--199">
          <mxGeometry width="50" height="50" relative="1" as="geometry">
            <mxPoint x="80" y="80" as="sourcePoint" />
            <mxPoint x="40" y="80" as="targetPoint" />
          </mxGeometry>
        </mxCell>
        <mxCell id="_ctNI8eUerikAIXpXf3--206" value="" style="endArrow=none;html=1;strokeColor=#3333FF;" edge="1" parent="_ctNI8eUerikAIXpXf3--199">
          <mxGeometry width="50" height="50" relative="1" as="geometry">
            <mxPoint x="40" y="120" as="sourcePoint" />
            <mxPoint x="40" y="80" as="targetPoint" />
          </mxGeometry>
        </mxCell>
      </root>
    </mxGraphModel>
  </diagram>
</mxfile>
